RobotoSerifText-RegularWdth500.ufo
<glyph name="parenleft" format="2">
  <advance width="276"/>
  <unicode hex="0028"/>
  <outline>
    <contour>
      <point x="123" y="310" type="curve" smooth="yes"/>
      <point x="123" y="110"/>
      <point x="202" y="-48"/>
      <point x="271" y="-127" type="curve"/>
      <point x="271" y="-130" type="line"/>
      <point x="219" y="-130" type="line"/>
      <point x="125" y="-51"/>
      <point x="40" y="116"/>
      <point x="40" y="310" type="curve" smooth="yes"/>
      <point x="40" y="504"/>
      <point x="125" y="671"/>
      <point x="219" y="750" type="curve"/>
      <point x="271" y="750" type="line"/>
      <point x="271" y="747" type="line"/>
      <point x="202" y="668"/>
      <point x="123" y="510"/>
    </contour>
  </outline>
</glyph>
<glyph name="plus" format="2">
  <advance width="462"/>
  <unicode hex="002B"/>
  <outline>
    <contour>
      <point x="198" y="520.0" type="line"/>
      <point x="198" y="162.0" type="line"/>
      <point x="264" y="162.0" type="line"/>
      <point x="264" y="520.0" type="line"/>
    </contour>
    <contour>
      <point x="404" y="370" type="line"/>
      <point x="58" y="370" type="line"/>
      <point x="58" y="312" type="line"/>
      <point x="404" y="312" type="line"/>
    </contour>
  </outline>
</glyph>
<glyph name="six" format="2">
  <advance width="462"/>
  <unicode hex="0036"/>
  <outline>
    <contour>
      <point x="374.66" y="686.0" type="line"/>
      <point x="220.6503898858075" y="652.2825023652"/>
      <point x="116.55" y="497.4"/>
      <point x="116.55" y="293.4" type="curve" smooth="yes"/>
      <point x="116.55" y="119.2"/>
      <point x="167.0137724550275" y="44.0"/>
      <point x="239.2875" y="44.0" type="curve" smooth="yes"/>
      <point x="304.3549647888025" y="44.0"/>
      <point x="343.855" y="120.8"/>
      <point x="343.855" y="230.0" type="curve" smooth="yes"/>
      <point x="343.855" y="331.6"/>
      <point x="313.60287401552" y="400.2"/>
      <point x="250.125" y="400.2" type="curve" smooth="yes"/>
      <point x="182.393125" y="400.2"/>
      <point x="133.93136052846" y="333.4315204964"/>
      <point x="103.34" y="247.8" type="curve"/>
      <point x="94.7675" y="294.0" type="line"/>
      <point x="116.87202750328501" y="373.0170834336"/>
      <point x="178.5915182649125" y="454.2"/>
      <point x="264.5425" y="454.2" type="curve" smooth="yes"/>
      <point x="360.5810680751025" y="454.2"/>
      <point x="433.21000000000004" y="368.4"/>
      <point x="433.21000000000004" y="230.0" type="curve" smooth="yes"/>
      <point x="433.21000000000004" y="93.2"/>
      <point x="351.6535" y="-10.0"/>
      <point x="239.7625" y="-10.0" type="curve" smooth="yes"/>
      <point x="119.8348854959725" y="-10.0"/>
      <point x="28.79" y="94.0"/>
      <point x="28.79" y="293.4" type="curve" smooth="yes"/>
      <point x="28.79" y="511.0"/>
      <point x="164.8459293750275" y="702.295481276"/>
      <point x="366.3275" y="740.0" type="curve"/>
    </contour>
  </outline>
</glyph>
<glyph name="nine" format="2">
  <advance width="462"/>
  <unicode hex="0039"/>
  <outline>
    <contour>
      <point x="73.0525" y="-39.0" type="line"/>
      <point x="244.571764726925" y="-24.51315441768"/>
      <point x="345.45" y="98.0"/>
      <point x="345.45" y="316.2" type="curve" smooth="yes"/>
      <point x="345.45" y="494.6"/>
      <point x="296.0825" y="565.0"/>
      <point x="224.355" y="565.0" type="curve" smooth="yes"/>
      <point x="157.915" y="565.0"/>
      <point x="118.14500000000001" y="496.8"/>
      <point x="118.14500000000001" y="393.2" type="curve" smooth="yes"/>
      <point x="118.14500000000001" y="298.6"/>
      <point x="150.2" y="231.0"/>
      <point x="215.6375" y="231.0" type="curve" smooth="yes"/>
      <point x="283.7925" y="231.0"/>
      <point x="330.3359058264425" y="294.773808128"/>
      <point x="358.66" y="386.0" type="curve"/>
      <point x="367.2325" y="339.8" type="line"/>
      <point x="347.393107112805" y="255.1869523972"/>
      <point x="286.985" y="177.0"/>
      <point x="201.72" y="177.0" type="curve" smooth="yes"/>
      <point x="103.1725" y="177.0"/>
      <point x="28.79" y="261.8"/>
      <point x="28.79" y="393.2" type="curve" smooth="yes"/>
      <point x="28.79" y="524.4"/>
      <point x="109.3125" y="619.0"/>
      <point x="223.88" y="619.0" type="curve" smooth="yes"/>
      <point x="345.16" y="619.0"/>
      <point x="433.21000000000004" y="519.8"/>
      <point x="433.21000000000004" y="316.2" type="curve" smooth="yes"/>
      <point x="433.21000000000004" y="83.6"/>
      <point x="300.3904961940175" y="-75.33335601392"/>
      <point x="81.8375" y="-93.0" type="curve"/>
    </contour>
  </outline>
</glyph>
<glyph name="question" format="2">
  <advance width="456"/>
  <unicode hex="003F"/>
  <outline>
    <contour>
      <point x="176" y="361" type="line"/>
      <point x="259" y="402"/>
      <point x="326" y="441"/>
      <point x="326" y="556" type="curve" smooth="yes"/>
      <point x="326" y="645"/>
      <point x="287" y="688"/>
      <point x="222" y="688" type="curve" smooth="yes"/>
      <point x="149.0" y="688.0"/>
      <point x="118" y="655"/>
      <point x="92" y="627" type="curve"/>
      <point x="94" y="643"/>
      <point x="106" y="671"/>
      <point x="127" y="676" type="curve"/>
      <point x="127" y="562" type="line"/>
      <point x="47" y="562" type="line"/>
      <point x="47" y="668" type="line"/>
      <point x="74" y="699"/>
      <point x="137" y="742"/>
      <point x="224" y="742" type="curve" smooth="yes"/>
      <point x="344" y="742"/>
      <point x="412" y="674"/>
      <point x="412" y="556" type="curve" smooth="yes"/>
      <point x="412" y="431"/>
      <point x="319" y="366"/>
      <point x="241" y="329" type="curve"/>
      <point x="241" y="211" type="line"/>
      <point x="176" y="211" type="line"/>
    </contour>
    <component base="period" xOffset="98" yOffset="-1"/>
  </outline>
</glyph>
<glyph name="at" format="2">
  <advance width="755.475"/>
  <unicode hex="0040"/>
  <outline>
    <contour>
      <point x="384.7375" y="-103.4" type="curve" smooth="yes"/>
      <point x="213.7125" y="-103.4"/>
      <point x="92.13999999999999" y="25.200000000000003"/>
      <point x="92.13999999999999" y="231.6" type="curve" smooth="yes"/>
      <point x="92.13999999999999" y="454.6"/>
      <point x="227.71249999999998" y="623.6"/>
      <point x="411.7375" y="623.6" type="curve" smooth="yes"/>
      <point x="571.9775" y="623.6"/>
      <point x="663.2875" y="500.2"/>
      <point x="663.2875" y="342.0" type="curve" smooth="yes"/>
      <point x="663.2875" y="183.4"/>
      <point x="598.355" y="100.6"/>
      <point x="552.59" y="100.6" type="curve" smooth="yes"/>
      <point x="521.61" y="100.6"/>
      <point x="507.4875" y="124.2"/>
      <point x="514.75" y="179.0" type="curve" smooth="yes"/>
      <point x="555.7975" y="468.0" type="line"/>
      <point x="506.295" y="468.0" type="line"/>
      <point x="477.295" y="388.6" type="line"/>
      <point x="466.58" y="383.4" type="line"/>
      <point x="434.58" y="148.6" type="line"/>
      <point x="436.3175" y="143.8"/>
      <point x="441.1025" y="143.2"/>
      <point x="441.6975" y="143.0" type="curve"/>
      <point x="446.9575" y="94.8"/>
      <point x="479.575" y="54.6"/>
      <point x="538.475" y="54.6" type="curve" smooth="yes"/>
      <point x="623.5174999999999" y="54.6"/>
      <point x="716.3499999999999" y="159.0"/>
      <point x="716.3499999999999" y="342.0" type="curve" smooth="yes"/>
      <point x="716.3499999999999" y="532.0"/>
      <point x="598.1625" y="673.0"/>
      <point x="411.7375" y="673.0" type="curve" smooth="yes"/>
      <point x="200.4075" y="673.0"/>
      <point x="38.6725" y="487.0"/>
      <point x="38.6725" y="231.6" type="curve" smooth="yes"/>
      <point x="38.6725" y="-7.4"/>
      <point x="186.36" y="-153.0"/>
      <point x="384.7375" y="-153.0" type="curve" smooth="yes"/>
      <point x="473.0925" y="-153.0"/>
      <point x="557.8050000000001" y="-124.8"/>
      <point x="605.85" y="-97.6" type="curve"/>
      <point x="589.9225" y="-50.8" type="line"/>
      <point x="541.4975" y="-77.2"/>
      <point x="470.1175" y="-103.4"/>
    </contour>
    <contour>
      <point x="339.8375" y="49.0" type="curve" smooth="yes"/>
      <point x="405.5025" y="49.0"/>
      <point x="437.8125" y="107.0"/>
      <point x="495.9825" y="198.2" type="curve"/>
      <point x="476.365" y="226.4" type="line"/>
      <point x="430.815" y="145.6"/>
      <point x="394.09749999999997" y="93.6"/>
      <point x="348.735" y="93.6" type="curve" smooth="yes"/>
      <point x="310.3975" y="93.6"/>
      <point x="291.99" y="136.6"/>
      <point x="291.99" y="214.6" type="curve" smooth="yes"/>
      <point x="291.99" y="317.8"/>
      <point x="333.28000000000003" y="428.6"/>
      <point x="395.0" y="428.6" type="curve" smooth="yes"/>
      <point x="434.17" y="428.6"/>
      <point x="463.1025" y="397.6"/>
      <point x="476.9825" y="312.4" type="curve"/>
      <point x="506.0075" y="338.2" type="line"/>
      <point x="485.6025" y="438.6"/>
      <point x="448.1225" y="474.0"/>
      <point x="389.34000000000003" y="474.0" type="curve" smooth="yes"/>
      <point x="276.555" y="474.0"/>
      <point x="213.725" y="343.4"/>
      <point x="213.725" y="223.4" type="curve" smooth="yes"/>
      <point x="213.725" y="111.0"/>
      <point x="266.25540730339003" y="49.0"/>
    </contour>
  </outline>
</glyph>
<glyph name="D" format="2">
  <advance width="642"/>
  <unicode hex="0044"/>
  <anchor x="321.0" y="741.0" name="top"/>
  <anchor x="321.0" y="0.0" name="bottom"/>
  <outline>
    <contour>
      <point x="35.195" y="666.4" type="line"/>
      <point x="45.1" y="666.4" type="line" smooth="yes"/>
      <point x="83.6525" y="666.4"/>
      <point x="111.775" y="657.4"/>
      <point x="111.775" y="630.4" type="curve" smooth="yes"/>
      <point x="111.775" y="79.6" type="line" smooth="yes"/>
      <point x="111.775" y="50.6"/>
      <point x="83.6525" y="43.6"/>
      <point x="45.1" y="43.6" type="curve" smooth="yes"/>
      <point x="35.195" y="43.6" type="line"/>
      <point x="35.195" y="0.0" type="line"/>
      <point x="292.73" y="0.0" type="line" smooth="yes"/>
      <point x="477.72749999999996" y="0.0"/>
      <point x="604.415" y="141.0"/>
      <point x="604.415" y="357.0" type="curve" smooth="yes"/>
      <point x="604.415" y="574.0"/>
      <point x="477.72749999999996" y="710.0"/>
      <point x="292.73" y="710.0" type="curve" smooth="yes"/>
      <point x="35.195" y="710.0" type="line"/>
    </contour>
    <contour>
      <point x="291.78" y="656.8" type="line" smooth="yes"/>
      <point x="425.44" y="656.8"/>
      <point x="508.5675" y="548.4891891892"/>
      <point x="508.5675" y="357.0" type="curve" smooth="yes"/>
      <point x="508.5675" y="165.504"/>
      <point x="425.44" y="53.2"/>
      <point x="291.78" y="53.2" type="curve" smooth="yes"/>
      <point x="200.9325" y="53.2" type="line"/>
      <point x="200.9325" y="656.8" type="line"/>
    </contour>
  </outline>
</glyph>
<glyph name="E" format="2">
  <advance width="529"/>
  <unicode hex="0045"/>
  <anchor x="312.5" y="741.0" name="top"/>
  <anchor x="365.5" y="0.0" name="right"/>
  <anchor x="312.5" y="0.0" name="bottom"/>
  <outline>
    <contour>
      <point x="483.1575" y="211.2" type="line"/>
      <point x="432.1675" y="211.2" type="line"/>
      <point x="424.525" y="96.2" type="line" smooth="yes"/>
      <point x="421.93" y="60.2"/>
      <point x="392.5" y="53.2"/>
      <point x="322.3075" y="53.2" type="curve" smooth="yes"/>
      <point x="200.0275" y="53.2" type="line"/>
      <point x="200.0275" y="656.8" type="line"/>
      <point x="301.1825" y="656.8" type="line" smooth="yes"/>
      <point x="369.38" y="656.8"/>
      <point x="397.975" y="649.8"/>
      <point x="401.28499999999997" y="613.8" type="curve" smooth="yes"/>
      <point x="408.5" y="523.8" type="line"/>
      <point x="458.4425" y="523.8" type="line"/>
      <point x="458.4425" y="710.0" type="line"/>
      <point x="35.195" y="710.0" type="line"/>
      <point x="35.195" y="666.4" type="line"/>
      <point x="44.1475" y="666.4" type="line" smooth="yes"/>
      <point x="82.7475" y="666.4"/>
      <point x="111.32249999999999" y="659.4"/>
      <point x="111.32249999999999" y="630.4" type="curve" smooth="yes"/>
      <point x="111.32249999999999" y="79.6" type="line" smooth="yes"/>
      <point x="111.32249999999999" y="50.6"/>
      <point x="82.7475" y="43.6"/>
      <point x="44.1475" y="43.6" type="curve" smooth="yes"/>
      <point x="35.195" y="43.6" type="line"/>
      <point x="35.195" y="0.0" type="line"/>
      <point x="483.1575" y="0.0" type="line"/>
    </contour>
    <contour>
      <point x="176" y="388" type="curve"/>
      <point x="176" y="340" type="line"/>
      <point x="246" y="337"/>
      <point x="314" y="334"/>
      <point x="378" y="332" type="curve"/>
      <point x="378" y="395" type="line"/>
      <point x="302" y="392"/>
      <point x="234" y="390"/>
    </contour>
  </outline>
</glyph>
<glyph name="U" format="2">
  <advance width="661"/>
  <unicode hex="0055"/>
  <anchor x="336.5" y="741.0" name="top"/>
  <anchor x="382.0" y="0.0" name="right"/>
  <anchor x="336.5" y="0.0" name="bottom"/>
  <outline>
    <contour>
      <point x="199.385" y="271.0" type="curve" smooth="yes"/>
      <point x="199.385" y="656.4" type="line" smooth="yes"/>
      <point x="199.385" y="663.4"/>
      <point x="237.9375" y="666.4"/>
      <point x="267.46500000000003" y="666.4" type="curve" smooth="yes"/>
      <point x="274.96500000000003" y="666.4" type="line"/>
      <point x="274.96500000000003" y="710.0" type="line"/>
      <point x="33.695" y="710.0" type="line"/>
      <point x="33.695" y="666.4" type="line"/>
      <point x="42.6475" y="666.4" type="line" smooth="yes"/>
      <point x="81.2475" y="666.4"/>
      <point x="109.32249999999999" y="659.4"/>
      <point x="109.32249999999999" y="630.4" type="curve" smooth="yes"/>
      <point x="109.32249999999999" y="271.0" type="line" smooth="yes"/>
      <point x="109.32249999999999" y="70.4"/>
      <point x="203.7975" y="-10.0"/>
      <point x="334.695" y="-10.0" type="curve" smooth="yes"/>
      <point x="455.12" y="-10.0"/>
      <point x="551.19" y="69.8"/>
      <point x="551.19" y="271.0" type="curve" smooth="yes"/>
      <point x="551.19" y="620.4" type="line" smooth="yes"/>
      <point x="551.19" y="654.4"/>
      <point x="579.7175" y="666.4"/>
      <point x="617.865" y="666.4" type="curve" smooth="yes"/>
      <point x="627.27" y="666.4" type="line"/>
      <point x="627.27" y="710.0" type="line"/>
      <point x="419.4025" y="710.0" type="line"/>
      <point x="419.4025" y="666.4" type="line"/>
      <point x="426.4025" y="666.4" type="line" smooth="yes"/>
      <point x="456.47749999999996" y="666.4"/>
      <point x="494.98249999999996" y="658.4"/>
      <point x="494.98249999999996" y="644.4" type="curve" smooth="yes"/>
      <point x="494.98249999999996" y="271.0" type="line" smooth="yes"/>
      <point x="494.98249999999996" y="106.57379032258001"/>
      <point x="433.095" y="52.0"/>
      <point x="348.01750000000004" y="52.0" type="curve" smooth="yes"/>
      <point x="260.46500000000003" y="52.0"/>
      <point x="199.385" y="106.0"/>
    </contour>
  </outline>
</glyph>
<glyph name="Z" format="2">
  <advance width="515"/>
  <unicode hex="005A"/>
  <anchor x="271.5" y="741.0" name="top"/>
  <anchor x="271.5" y="0.0" name="bottom"/>
  <outline>
    <contour>
      <point x="87.0325" y="53.2" type="line"/>
      <point x="100.955" y="18.2" type="line"/>
      <point x="468.395" y="652.8" type="line"/>
      <point x="468.395" y="710.0" type="line"/>
      <point x="50.8625" y="710.0" type="line"/>
      <point x="50.8625" y="518.6" type="line"/>
      <point x="100.94749999999999" y="518.6" type="line"/>
      <point x="108.1625" y="613.8" type="line" smooth="yes"/>
      <point x="110.5675" y="649.8"/>
      <point x="140.0675" y="656.8"/>
      <point x="208.265" y="656.8" type="curve" smooth="yes"/>
      <point x="411.705" y="656.8" type="line"/>
      <point x="394.9225" y="681.0" type="line"/>
      <point x="36.9825" y="60.2" type="line"/>
      <point x="36.9825" y="0.0" type="line"/>
      <point x="474.2025" y="0.0" type="line"/>
      <point x="474.2025" y="208.2" type="line"/>
      <point x="422.3075" y="208.2" type="line"/>
      <point x="414.57" y="96.2" type="line" smooth="yes"/>
      <point x="411.975" y="60.2"/>
      <point x="382.9975" y="53.2"/>
      <point x="312.805" y="53.2" type="curve" smooth="yes"/>
    </contour>
  </outline>
</glyph>
<glyph name="asciicircum" format="2">
  <advance width="414.0"/>
  <unicode hex="005E"/>
  <outline>
    <contour>
      <point x="99.32" y="364.0" type="line"/>
      <point x="213.755" y="685.0" type="line"/>
      <point x="217.16" y="710.0" type="line"/>
      <point x="168.5575" y="710.0" type="line"/>
      <point x="38.2925" y="364.0" type="line"/>
    </contour>
    <contour>
      <point x="311.6325" y="364.0" type="line"/>
      <point x="375.755" y="364.0" type="line"/>
      <point x="245.4425" y="710.0" type="line"/>
      <point x="194.34" y="710.0" type="line"/>
      <point x="196.245" y="686.0" type="line"/>
    </contour>
  </outline>
</glyph>
<glyph name="c" format="2">
  <advance width="463"/>
  <unicode hex="0063"/>
  <anchor x="246.5" y="551.0" name="top"/>
  <anchor x="255.0" y="0.0" name="bottom"/>
  <outline>
    <contour>
      <point x="262" y="41" type="curve" smooth="yes"/>
      <point x="172" y="41"/>
      <point x="126" y="126"/>
      <point x="126" y="254" type="curve" smooth="yes"/>
      <point x="126" y="378"/>
      <point x="172" y="466"/>
      <point x="268" y="466" type="curve" smooth="yes"/>
      <point x="325.0" y="466.0"/>
      <point x="370" y="439"/>
      <point x="384" y="399" type="curve"/>
      <point x="390" y="423"/>
      <point x="379" y="448.0"/>
      <point x="349" y="456" type="curve"/>
      <point x="349" y="339" type="line"/>
      <point x="429" y="339" type="line"/>
      <point x="429" y="461.0" type="line"/>
      <point x="407" y="483"/>
      <point x="352" y="518"/>
      <point x="266" y="518.0" type="curve" smooth="yes"/>
      <point x="129.0" y="518.0"/>
      <point x="36" y="410.0"/>
      <point x="36" y="254" type="curve" smooth="yes"/>
      <point x="36" y="98"/>
      <point x="121" y="-10"/>
      <point x="256" y="-10" type="curve" smooth="yes"/>
      <point x="353" y="-10"/>
      <point x="400" y="46"/>
      <point x="437" y="114" type="curve"/>
      <point x="398" y="153" type="line"/>
      <point x="373" y="103.0"/>
      <point x="337" y="41"/>
    </contour>
  </outline>
</glyph>
<glyph name="d" format="2">
  <advance width="532"/>
  <unicode hex="0064"/>
  <anchor x="501.0" y="735.0" name="right"/>
  <anchor x="246.5" y="0.0" name="bottom"/>
  <outline>
    <contour>
      <point x="372.2" y="0.0" type="line"/>
      <point x="516.49" y="0.0" type="line"/>
      <point x="516.49" y="41.4" type="line"/>
      <point x="515.015" y="41.4" type="line"/>
      <point x="477.70000000000005" y="41.4"/>
      <point x="450.9325" y="48.4"/>
      <point x="450.9325" y="77.4" type="curve" smooth="yes"/>
      <point x="450.9325" y="735.0" type="line"/>
      <point x="297.525" y="735.0" type="line"/>
      <point x="297.525" y="693.2" type="line"/>
      <point x="306.1925" y="691.2" type="line" smooth="yes"/>
      <point x="346.675" y="682.0"/>
      <point x="365.1775" y="675.2"/>
      <point x="365.1775" y="646.2" type="curve" smooth="yes"/>
      <point x="365.1775" y="118.6" type="line"/>
      <point x="372.2" y="116.2" type="line"/>
    </contour>
    <contour>
      <point x="228.5775" y="-10.0" type="curve" smooth="yes"/>
      <point x="297.5025" y="-10.0"/>
      <point x="339.17" y="30.2"/>
      <point x="381.78999999999996" y="109.4" type="curve"/>
      <point x="381.78999999999996" y="186.8" type="line"/>
      <point x="344.84000000000003" y="93.6"/>
      <point x="301.3325" y="41.6"/>
      <point x="239.3725" y="41.6" type="curve" smooth="yes"/>
      <point x="166.1" y="41.6"/>
      <point x="125.9025" y="122.4"/>
      <point x="125.9025" y="250.0" type="curve" smooth="yes"/>
      <point x="125.9025" y="380.8"/>
      <point x="166.1475" y="466.4"/>
      <point x="242.2525" y="466.4" type="curve" smooth="yes"/>
      <point x="302.2825" y="466.4"/>
      <point x="346.0525" y="419.6"/>
      <point x="381.78999999999996" y="324.0" type="curve"/>
      <point x="381.78999999999996" y="407.8" type="line"/>
      <point x="342.525" y="483.4"/>
      <point x="300.9075" y="518.0"/>
      <point x="233.72" y="518.0" type="curve" smooth="yes"/>
      <point x="116.195" y="518.0"/>
      <point x="36.195" y="408.8"/>
      <point x="36.195" y="250.0" type="curve" smooth="yes"/>
      <point x="36.195" y="93.8"/>
      <point x="113.22" y="-10.0"/>
    </contour>
  </outline>
</glyph>
<glyph name="f" format="2">
  <advance width="323"/>
  <unicode hex="0066"/>
  <outline>
    <contour>
      <point x="28.5075" y="508.0" type="line"/>
      <point x="28.5075" y="457.0" type="line"/>
      <point x="316" y="457.0" type="line"/>
      <point x="316" y="508.0" type="line"/>
    </contour>
    <contour>
      <point x="342.89250000000004" y="742.0" type="line"/>
      <point x="328.4875" y="748.0"/>
      <point x="300.84749999999997" y="752.0"/>
      <point x="274.6625" y="752.0" type="curve" smooth="yes"/>
      <point x="192.26999999999998" y="752.0"/>
      <point x="111.4425" y="709.8"/>
      <point x="111.4425" y="576.0" type="curve" smooth="yes"/>
      <point x="111.4425" y="77.4" type="line" smooth="yes"/>
      <point x="111.4425" y="48.4"/>
      <point x="85.82" y="41.4"/>
      <point x="42.457499999999996" y="41.4" type="curve" smooth="yes"/>
      <point x="33.362500000000004" y="41.4" type="line"/>
      <point x="33.362500000000004" y="0.0" type="line"/>
      <point x="282.9675" y="0.0" type="line"/>
      <point x="282.9675" y="41.4" type="line"/>
      <point x="272.65749999999997" y="41.4" type="line" smooth="yes"/>
      <point x="230.39" y="41.4"/>
      <point x="197.1025" y="44.4"/>
      <point x="197.1025" y="51.4" type="curve" smooth="yes"/>
      <point x="197.1025" y="576.0" type="line" smooth="yes"/>
      <point x="197.1025" y="677.4"/>
      <point x="230.415" y="701.2"/>
      <point x="277.13" y="701.2" type="curve" smooth="yes"/>
      <point x="303.4625" y="701.2"/>
      <point x="326.7" y="692.8"/>
      <point x="342.89250000000004" y="685.0" type="curve"/>
    </contour>
  </outline>
</glyph>
<glyph name="i" format="2">
  <advance width="265"/>
  <unicode hex="0069"/>
  <anchor x="139.5" y="551.0" name="top"/>
  <anchor x="177.5" y="-10.0" name="right"/>
  <anchor x="138.0" y="-10.0" name="bottom"/>
  <outline>
    <contour>
      <point x="135.1175" y="626.6" type="curve" smooth="yes"/>
      <point x="167.53750000000002" y="626.6"/>
      <point x="190.5575" y="647.7684210526"/>
      <point x="190.5575" y="683.4" type="curve" smooth="yes"/>
      <point x="190.5575" y="718.2315789474"/>
      <point x="167.53750000000002" y="739.4"/>
      <point x="135.1175" y="739.4" type="curve" smooth="yes"/>
      <point x="102.745" y="739.4"/>
      <point x="79.725" y="718.2315789474"/>
      <point x="79.725" y="683.4" type="curve" smooth="yes"/>
      <point x="79.725" y="647.7684210526"/>
      <point x="102.745" y="626.6"/>
    </contour>
    <contour>
      <point x="181.5075" y="508.0" type="line"/>
      <point x="29.7425" y="508.0" type="line"/>
      <point x="29.7425" y="466.2" type="line"/>
      <point x="38.457499999999996" y="464.2" type="line" smooth="yes"/>
      <point x="78.035" y="455.0"/>
      <point x="95.7525" y="448.2"/>
      <point x="95.7525" y="419.2" type="curve" smooth="yes"/>
      <point x="95.7525" y="77.4" type="line" smooth="yes"/>
      <point x="95.7525" y="48.4"/>
      <point x="68.3675" y="41.4"/>
      <point x="31.195" y="41.4" type="curve" smooth="yes"/>
      <point x="30.195" y="41.4" type="line"/>
      <point x="30.195" y="0.0" type="line"/>
      <point x="246.6125" y="0.0" type="line"/>
      <point x="246.6125" y="41.4" type="line"/>
      <point x="246.065" y="41.4" type="line" smooth="yes"/>
      <point x="208.94" y="41.4"/>
      <point x="181.5075" y="48.4"/>
      <point x="181.5075" y="77.4" type="curve" smooth="yes"/>
    </contour>
  </outline>
</glyph>
<glyph name="m" format="2">
  <advance width="774"/>
  <unicode hex="006D"/>
  <outline>
    <contour>
      <point x="30" y="0" type="line"/>
      <point x="239" y="0" type="line"/>
      <point x="239" y="41" type="line"/>
      <point x="237" y="41" type="line" smooth="yes"/>
      <point x="215" y="41"/>
      <point x="181" y="44"/>
      <point x="181" y="51" type="curve" smooth="yes"/>
      <point x="181" y="392" type="line"/>
      <point x="173" y="401" type="line"/>
      <point x="173" y="508" type="line"/>
      <point x="30" y="508" type="line"/>
      <point x="30" y="466" type="line"/>
      <point x="38" y="464" type="line" smooth="yes"/>
      <point x="77" y="454"/>
      <point x="95" y="448"/>
      <point x="95" y="419" type="curve" smooth="yes"/>
      <point x="95" y="77" type="line" smooth="yes"/>
      <point x="95" y="48"/>
      <point x="68" y="41"/>
      <point x="31" y="41" type="curve" smooth="yes"/>
      <point x="30" y="41" type="line"/>
    </contour>
    <contour>
      <point x="494" y="0" type="line"/>
      <point x="494" y="41" type="line"/>
      <point x="493" y="41" type="line" smooth="yes"/>
      <point x="470" y="41"/>
      <point x="436" y="44"/>
      <point x="436" y="51" type="curve" smooth="yes"/>
      <point x="436" y="357" type="line"/>
      <point x="436" y="468"/>
      <point x="386" y="518"/>
      <point x="310" y="518" type="curve" smooth="yes"/>
      <point x="248" y="518"/>
      <point x="205" y="482"/>
      <point x="166" y="408" type="curve"/>
      <point x="166" y="345" type="line"/>
      <point x="201" y="420"/>
      <point x="240" y="461"/>
      <point x="289" y="461" type="curve" smooth="yes"/>
      <point x="335" y="461"/>
      <point x="350" y="425"/>
      <point x="350" y="346" type="curve" smooth="yes"/>
      <point x="350" y="51" type="line" smooth="yes"/>
      <point x="350" y="44"/>
      <point x="316" y="41"/>
      <point x="293" y="41" type="curve" smooth="yes"/>
      <point x="292" y="41" type="line"/>
      <point x="292" y="0" type="line"/>
    </contour>
    <contour>
      <point x="756" y="0" type="line"/>
      <point x="756" y="41" type="line"/>
      <point x="755" y="41" type="line" smooth="yes"/>
      <point x="718" y="41"/>
      <point x="691" y="48"/>
      <point x="691" y="77" type="curve" smooth="yes"/>
      <point x="691" y="357" type="line" smooth="yes"/>
      <point x="691" y="468"/>
      <point x="641" y="518"/>
      <point x="565" y="518" type="curve" smooth="yes"/>
      <point x="503" y="518"/>
      <point x="460" y="482"/>
      <point x="421" y="408" type="curve"/>
      <point x="421" y="345" type="line"/>
      <point x="456" y="420"/>
      <point x="495" y="461"/>
      <point x="544" y="461" type="curve" smooth="yes"/>
      <point x="590" y="461"/>
      <point x="605" y="425"/>
      <point x="605" y="346" type="curve" smooth="yes"/>
      <point x="605" y="51" type="line" smooth="yes"/>
      <point x="605" y="44"/>
      <point x="571" y="41"/>
      <point x="548" y="41" type="curve" smooth="yes"/>
      <point x="547" y="41" type="line"/>
      <point x="547" y="0" type="line"/>
    </contour>
  </outline>
</glyph>
<glyph name="y" format="2">
  <advance width="489"/>
  <unicode hex="0079"/>
  <anchor x="246.595" y="551.0" name="top"/>
  <anchor x="254.095" y="-211.0" name="bottom"/>
  <outline>
    <contour>
      <point x="232" y="-42.0" type="line"/>
      <point x="263.905" y="8.0" type="line"/>
      <point x="279" y="43" type="line"/>
      <point x="145.83249999999998" y="457.0" type="line"/>
      <point x="145.83249999999998" y="464.0"/>
      <point x="183.4325" y="466.0"/>
      <point x="215.34" y="466.0" type="curve" smooth="yes"/>
      <point x="217.245" y="466.0" type="line"/>
      <point x="217.245" y="508.0" type="line"/>
      <point x="4.2375" y="508.0" type="line"/>
      <point x="4.2375" y="466.0" type="line"/>
      <point x="5.2375" y="466.0" type="line"/>
      <point x="37.05" y="466.0"/>
      <point x="55" y="459"/>
      <point x="65.1725" y="431.0" type="curve" smooth="yes"/>
    </contour>
    <contour>
      <point x="86.755" y="-231.6" type="curve" smooth="yes"/>
      <point x="168.9225" y="-231.6"/>
      <point x="225.565" y="-152.8"/>
      <point x="285.5625" y="17.0" type="curve" smooth="yes"/>
      <point x="424.515" y="421.0" type="line" smooth="yes"/>
      <point x="437.3725" y="458.0"/>
      <point x="460.0425" y="466.0"/>
      <point x="483.925" y="466.0" type="curve"/>
      <point x="484.925" y="466.0" type="line"/>
      <point x="484.925" y="508.0" type="line"/>
      <point x="307.49" y="508.0" type="line"/>
      <point x="307.49" y="466.0" type="line"/>
      <point x="309.99" y="466.0" type="line" smooth="yes"/>
      <point x="341.755" y="466.0"/>
      <point x="374.7825" y="457.0"/>
      <point x="374.7825" y="444.0" type="curve"/>
      <point x="249.5925" y="64.8" type="line"/>
      <point x="242" y="49" type="line"/>
      <point x="188" y="-127"/>
      <point x="138.1775" y="-159.0"/>
      <point x="88.67750000000001" y="-159.0" type="curve" smooth="yes"/>
      <point x="58.92" y="-159.0"/>
      <point x="33.425" y="-142.6"/>
      <point x="28.14" y="-140.8" type="curve"/>
      <point x="28.14" y="-213.8" type="line"/>
      <point x="40.14" y="-223.2"/>
      <point x="58.042500000000004" y="-231.6"/>
    </contour>
  </outline>
</glyph>
<glyph name="ordfeminine" format="2">
  <advance width="400.1125"/>
  <unicode hex="00AA"/>
  <outline>
    <contour>
      <point x="257.29" y="560.4" type="line"/>
      <point x="109.6725" y="543.6"/>
      <point x="38.53" y="507.4"/>
      <point x="38.53" y="420.2" type="curve" smooth="yes"/>
      <point x="38.53" y="349.8"/>
      <point x="80.9825" y="310.0"/>
      <point x="143.55" y="310.0" type="curve" smooth="yes"/>
      <point x="199.69" y="310.0"/>
      <point x="238.025" y="351.6"/>
      <point x="257.5" y="405.0" type="curve"/>
      <point x="284.8325" y="446.8"/>
      <point x="249.8125" y="440.4"/>
      <point x="245.14499999999998" y="440.4" type="curve"/>
      <point x="228.83249999999998" y="392.4"/>
      <point x="203.6625" y="355.4"/>
      <point x="169.3725" y="355.4" type="curve" smooth="yes"/>
      <point x="140.2025" y="355.4"/>
      <point x="119.9375" y="381.0"/>
      <point x="119.9375" y="421.0" type="curve" smooth="yes"/>
      <point x="119.9375" y="478.0"/>
      <point x="158.2525" y="511.6"/>
      <point x="256.385" y="519.8" type="curve"/>
    </contour>
    <contour>
      <point x="247.5975" y="320.0" type="line"/>
      <point x="367.84499999999997" y="320.0" type="line"/>
      <point x="367.84499999999997" y="358.2" type="line"/>
      <point x="367.465" y="358.2" type="line"/>
      <point x="340.1275" y="358.2"/>
      <point x="318.7425" y="362.2"/>
      <point x="318.7425" y="387.2" type="curve" smooth="yes"/>
      <point x="318.7425" y="596.0" type="line" smooth="yes"/>
      <point x="318.7425" y="689.6"/>
      <point x="256.175" y="720.0"/>
      <point x="189.16" y="720.0" type="curve" smooth="yes"/>
      <point x="124.93" y="720.0"/>
      <point x="77.14750000000001" y="696.0"/>
      <point x="58.815" y="668.8" type="curve"/>
      <point x="58.815" y="604.8" type="line"/>
      <point x="134.61" y="604.8" type="line"/>
      <point x="134.61" y="671.8" type="line"/>
      <point x="116.3275" y="667.4"/>
      <point x="95.8725" y="650.4"/>
      <point x="100.91499999999999" y="621.8" type="curve"/>
      <point x="115.20249999999999" y="653.0"/>
      <point x="147.54" y="676.2"/>
      <point x="183.9725" y="676.2" type="curve" smooth="yes"/>
      <point x="221.7625" y="676.2"/>
      <point x="242.4075" y="652.2"/>
      <point x="242.4075" y="590.4" type="curve" smooth="yes"/>
      <point x="242.4075" y="400.8" type="line"/>
      <point x="247.5975" y="398.8" type="line"/>
    </contour>
  </outline>
</glyph>
<glyph name="logicalnot" format="2">
  <advance width="462.0"/>
  <unicode hex="00AC"/>
  <outline>
    <contour>
      <point x="335.5825" y="349.0" type="line"/>
      <point x="335.5825" y="160.0" type="line"/>
      <point x="394.3275" y="160.0" type="line"/>
      <point x="394.3275" y="369.0" type="line"/>
      <point x="67.6725" y="369.0" type="line"/>
      <point x="67.6725" y="314.4" type="line"/>
      <point x="370.94" y="314.4" type="line"/>
    </contour>
  </outline>
</glyph>
<glyph name="germandbls" format="2">
  <advance width="520.58"/>
  <unicode hex="00DF"/>
  <outline>
    <contour>
      <point x="28.5075" y="508.0" type="line"/>
      <point x="28.5075" y="456.4" type="line"/>
      <point x="142.7225" y="456.4" type="line"/>
      <point x="142.7225" y="508.0" type="line"/>
    </contour>
    <contour>
      <point x="33.315" y="0.0" type="line"/>
      <point x="197.1025" y="0.0" type="line"/>
      <point x="197.1025" y="574.4" type="line" smooth="yes"/>
      <point x="197.1025" y="676.0"/>
      <point x="232.49" y="701.2"/>
      <point x="280.1375" y="701.2" type="curve" smooth="yes"/>
      <point x="328.1675" y="701.2"/>
      <point x="357.315" y="664.0"/>
      <point x="357.315" y="596.4" type="curve" smooth="yes"/>
      <point x="357.315" y="508.8"/>
      <point x="309.7399703745896" y="457.4"/>
      <point x="242.2025" y="446.4" type="curve"/>
      <point x="242.2025" y="398.8" type="line"/>
      <point x="244.39249999999998" y="398.8" type="line" smooth="yes"/>
      <point x="330.76460661231573" y="398.8"/>
      <point x="399.3925" y="308.2"/>
      <point x="399.3925" y="185.8" type="curve" smooth="yes"/>
      <point x="399.3925" y="90.0"/>
      <point x="366.89" y="41.6"/>
      <point x="314.1675" y="41.6" type="curve" smooth="yes"/>
      <point x="283.115" y="41.6"/>
      <point x="248.46500000000003" y="63.2"/>
      <point x="242.20250000000001" y="65.4" type="curve"/>
      <point x="242.20250000000001" y="10.8" type="line"/>
      <point x="254.41500000000002" y="1.8"/>
      <point x="288.5575" y="-10.0"/>
      <point x="325.295" y="-10.0" type="curve" smooth="yes"/>
      <point x="417.98" y="-10.0"/>
      <point x="489.6" y="56.6"/>
      <point x="489.6" y="185.8" type="curve" smooth="yes"/>
      <point x="489.6" y="307.9903225808"/>
      <point x="420.32037170745" y="404.999691566"/>
      <point x="293.1325" y="432.6" type="curve"/>
      <point x="259.5325" y="416.0" type="line"/>
      <point x="352.7425" y="426.8"/>
      <point x="440.8125" y="506.5925133688"/>
      <point x="440.8125" y="605.0" type="curve" smooth="yes"/>
      <point x="440.8125" y="689.6"/>
      <point x="380.6275" y="752.0"/>
      <point x="280.71000000000004" y="752.0" type="curve" smooth="yes"/>
      <point x="192.9" y="752.0"/>
      <point x="111.395" y="708.8"/>
      <point x="111.395" y="574.4" type="curve" smooth="yes"/>
      <point x="111.395" y="77.4" type="line" smooth="yes"/>
      <point x="111.395" y="48.4"/>
      <point x="85.7725" y="41.4"/>
      <point x="42.41" y="41.4" type="curve" smooth="yes"/>
      <point x="33.315" y="41.4" type="line"/>
    </contour>
  </outline>
</glyph>
<glyph name="thorn" format="2">
  <advance width="534.8"/>
  <unicode hex="00FE"/>
  <outline>
    <contour>
      <point x="18.43" y="-223.0" type="line"/>
      <point x="250.1325" y="-223.0" type="line"/>
      <point x="250.1325" y="-181.6" type="line"/>
      <point x="228.26999999999998" y="-181.6" type="line" smooth="yes"/>
      <point x="207.10250000000002" y="-181.6"/>
      <point x="169.29000000000002" y="-178.6"/>
      <point x="169.29000000000002" y="-171.6" type="curve"/>
      <point x="169.29000000000002" y="735.0" type="line"/>
      <point x="18.43" y="735.0" type="line"/>
      <point x="18.43" y="693.2" type="line"/>
      <point x="26.24" y="691.2" type="line" smooth="yes"/>
      <point x="65.365" y="681.2"/>
      <point x="83.9875" y="675.2"/>
      <point x="83.9875" y="646.2" type="curve" smooth="yes"/>
      <point x="83.9875" y="-145.6" type="line" smooth="yes"/>
      <point x="83.9875" y="-174.6"/>
      <point x="57.055" y="-181.6"/>
      <point x="19.8825" y="-181.6" type="curve"/>
      <point x="18.43" y="-181.6" type="line"/>
    </contour>
    <contour>
      <point x="409.0175" y="257.0" type="curve" smooth="yes"/>
      <point x="409.0175" y="127.8"/>
      <point x="369.225" y="41.6"/>
      <point x="293.12" y="41.6" type="curve" smooth="yes"/>
      <point x="231.685" y="41.6"/>
      <point x="186.9625" y="93.8"/>
      <point x="150.95749999999998" y="192.6" type="curve"/>
      <point x="117.77" y="170.8" type="line"/>
      <point x="170.68" y="46.4"/>
      <point x="215.7025" y="-10.0"/>
      <point x="301.6525" y="-10.0" type="curve" smooth="yes"/>
      <point x="420.0825" y="-10.0"/>
      <point x="498.725" y="99.0"/>
      <point x="498.725" y="257.0" type="curve" smooth="yes"/>
      <point x="498.725" y="414.0"/>
      <point x="423.0575" y="518.0"/>
      <point x="307.7" y="518.0" type="curve" smooth="yes"/>
      <point x="222.0325" y="518.0"/>
      <point x="178.15" y="456.0"/>
      <point x="120.0275" y="331.6" type="curve"/>
      <point x="151.95749999999998" y="307.8" type="line"/>
      <point x="187.675" y="408.6"/>
      <point x="234.04000000000002" y="466.4"/>
      <point x="296.905" y="466.4" type="curve" smooth="yes"/>
      <point x="370.1775" y="466.4"/>
      <point x="409.0175" y="385.4"/>
    </contour>
  </outline>
</glyph>
<glyph name="tbar" format="2">
  <advance width="312"/>
  <unicode hex="0167"/>
  <outline>
    <contour>
      <point x="287.105" y="321.8" type="line"/>
      <point x="5.882499999999999" y="321.8" type="line"/>
      <point x="5.882499999999999" y="274.2" type="line"/>
      <point x="287.105" y="274.2" type="line"/>
    </contour>
    <component base="t" xOffset="-31.9275"/>
  </outline>
</glyph>
<glyph name="Delta" format="2">
  <advance width="605.13"/>
  <unicode hex="0394"/>
  <outline>
    <contour>
      <point x="35.4325" y="0.0" type="line"/>
      <point x="569.245" y="0.0" type="line"/>
      <point x="569.245" y="67.0" type="line"/>
      <point x="349.7" y="710.0" type="line"/>
      <point x="254.9775" y="710.0" type="line"/>
      <point x="35.4325" y="67.0" type="line"/>
    </contour>
    <contour>
      <point x="490.965" y="42.0" type="line"/>
      <point x="516.11" y="72.0" type="line"/>
      <point x="62.5" y="72.0" type="line"/>
      <point x="82.7375" y="40.0" type="line"/>
      <point x="304.7825" y="698.4" type="line"/>
      <point x="269.105" y="699.4" type="line"/>
    </contour>
  </outline>
</glyph>
<glyph name="guilsinglleft" format="2">
  <advance width="238.56"/>
  <unicode hex="2039"/>
  <outline>
    <contour>
      <point x="89.9075" y="220.0" type="line"/>
      <point x="206.82" y="455.0" type="line"/>
      <point x="160.8075" y="455.0" type="line"/>
      <point x="32.24" y="284.4" type="line"/>
      <point x="32.24" y="245.6" type="line"/>
      <point x="160.8075" y="75.0" type="line"/>
      <point x="206.82" y="75.0" type="line"/>
      <point x="90.9075" y="306.4" type="line"/>
    </contour>
  </outline>
</glyph>
<glyph name="Euro" format="2">
  <advance width="462.0"/>
  <unicode hex="20AC"/>
  <outline>
    <contour>
      <point x="15.692499999999999" y="448.2" type="line"/>
      <point x="15.692499999999999" y="397.4" type="line"/>
      <point x="336.51750000000004" y="397.4" type="line"/>
      <point x="336.51750000000004" y="448.2" type="line"/>
    </contour>
    <contour>
      <point x="15.692499999999999" y="294.0" type="line"/>
      <point x="15.692499999999999" y="243.2" type="line"/>
      <point x="296.27750000000003" y="243.2" type="line"/>
      <point x="296.27750000000003" y="294.0" type="line"/>
    </contour>
    <contour>
      <point x="280.595" y="-10.0" type="curve" smooth="yes"/>
      <point x="371.83" y="-10.0"/>
      <point x="428.855" y="58.4"/>
      <point x="452.855" y="155.8" type="curve"/>
      <point x="401.3125" y="182.6" type="line"/>
      <point x="383.7875" y="110.8"/>
      <point x="346.6425" y="45.6"/>
      <point x="287.685" y="45.6" type="curve" smooth="yes"/>
      <point x="213.63" y="45.6"/>
      <point x="163.2175" y="132.0"/>
      <point x="163.2175" y="353.8" type="curve" smooth="yes"/>
      <point x="163.2175" y="582.4"/>
      <point x="219.70499999999998" y="664.2"/>
      <point x="304.145" y="664.2" type="curve" smooth="yes"/>
      <point x="350.82" y="664.2"/>
      <point x="380.77750000000003" y="637.4"/>
      <point x="396.375" y="605.8" type="curve"/>
      <point x="410.5625" y="620.0"/>
      <point x="390.14215207002" y="650.2"/>
      <point x="359.085" y="657.8" type="curve"/>
      <point x="359.085" y="555.0" type="line"/>
      <point x="442.4975" y="555.0" type="line"/>
      <point x="442.4975" y="669.2" type="line"/>
      <point x="422.7825" y="689.6"/>
      <point x="378.6175" y="719.8"/>
      <point x="304.3825" y="719.8" type="curve" smooth="yes"/>
      <point x="175.125" y="719.8"/>
      <point x="73.46" y="610.0"/>
      <point x="73.46" y="353.8" type="curve" smooth="yes"/>
      <point x="73.46" y="102.0"/>
      <point x="161.6725" y="-10.0"/>
    </contour>
  </outline>
</glyph>
<glyph name="guarani" format="2">
  <advance width="462.0"/>
  <unicode hex="20B2"/>
  <outline>
    <contour>
      <point x="309.6875" y="357.0" type="line"/>
      <point x="309.6875" y="313.4" type="line"/>
      <point x="313.3075" y="313.4" type="line" smooth="yes"/>
      <point x="328.3282926828275" y="313.4"/>
      <point x="340.4575" y="306.4"/>
      <point x="340.4575" y="277.4" type="curve"/>
      <point x="417.185" y="277.4" type="line"/>
      <point x="417.185" y="306.4"/>
      <point x="434.045" y="313.4"/>
      <point x="455.8575" y="313.4" type="curve" smooth="yes"/>
      <point x="459.3575" y="313.4" type="line"/>
      <point x="459.3575" y="357.0" type="line"/>
    </contour>
    <contour>
      <point x="212.7625" y="790.0" type="line"/>
      <point x="212.7625" y="672.2" type="line"/>
      <point x="214.14" y="663.4" type="line"/>
      <point x="214.14" y="45.8" type="line"/>
      <point x="212.7625" y="36.0" type="line"/>
      <point x="212.7625" y="-120.0" type="line"/>
      <point x="266.1575" y="-120.0" type="line"/>
      <point x="266.1575" y="36.2" type="line"/>
      <point x="264.78" y="45.400000000000006" type="line"/>
      <point x="264.78" y="659.8" type="line"/>
      <point x="266.1575" y="675.6" type="line"/>
      <point x="266.1575" y="790.0" type="line"/>
    </contour>
    <contour>
      <point x="250.0925" y="10.0" type="curve"/>
      <point x="322.065" y="10.0"/>
      <point x="389.0425" y="56.2"/>
      <point x="417.185" y="102.6" type="curve"/>
      <point x="417.185" y="323.4" type="line"/>
      <point x="340.4575" y="331.4" type="line"/>
      <point x="340.4575" y="108.0" type="line"/>
      <point x="326.8375" y="89.8"/>
      <point x="297.8825" y="62.400000000000006"/>
      <point x="251.9" y="62.400000000000006" type="curve"/>
      <point x="153.98411202167" y="62.400000000000006"/>
      <point x="105.1" y="173.4"/>
      <point x="105.1" y="355.0" type="curve" smooth="yes"/>
      <point x="105.1" y="533.6"/>
      <point x="146.95183673462" y="647.6"/>
      <point x="261.925" y="647.6" type="curve"/>
      <point x="307.7125" y="647.6"/>
      <point x="353.385" y="619.0"/>
      <point x="379.4825" y="559.4" type="curve"/>
      <point x="387.2375" y="587.8"/>
      <point x="361.18" y="620.8"/>
      <point x="339.05" y="623.8" type="curve"/>
      <point x="339.05" y="521.2" type="line"/>
      <point x="420.685" y="521.2" type="line"/>
      <point x="420.685" y="612.0" type="line"/>
      <point x="392.11" y="666.6"/>
      <point x="325.56" y="700.0"/>
      <point x="258.1175" y="700.0" type="curve"/>
      <point x="105.855" y="700.0"/>
      <point x="15.692499999999999" y="560.2"/>
      <point x="15.692499999999999" y="355.0" type="curve" smooth="yes"/>
      <point x="15.692499999999999" y="148.6"/>
      <point x="105.4275" y="10.0"/>
    </contour>
  </outline>
</glyph>
<glyph name="trademark" format="2">
  <advance width="721.89"/>
  <unicode hex="2122"/>
  <outline>
    <contour>
      <point x="46.745" y="710.0" type="line"/>
      <point x="46.745" y="606.6" type="line"/>
      <point x="79.145" y="606.6" type="line"/>
      <point x="82.55" y="654.6" type="line" smooth="yes"/>
      <point x="83.05" y="668.6"/>
      <point x="96.3125" y="675.6"/>
      <point x="127.0275" y="675.6" type="curve" smooth="yes"/>
      <point x="144.46" y="675.6" type="line"/>
      <point x="144.46" y="444.8" type="line" smooth="yes"/>
      <point x="144.46" y="431.8"/>
      <point x="131.1725" y="427.8"/>
      <point x="114.0275" y="427.8" type="curve" smooth="yes"/>
      <point x="105.765" y="427.8" type="line"/>
      <point x="105.765" y="395.0" type="line"/>
      <point x="236.9975" y="395.0" type="line"/>
      <point x="236.9975" y="427.8" type="line"/>
      <point x="228.7825" y="427.8" type="line" smooth="yes"/>
      <point x="211.6375" y="427.8"/>
      <point x="198.3025" y="431.8"/>
      <point x="198.3025" y="444.8" type="curve" smooth="yes"/>
      <point x="198.3025" y="675.6" type="line"/>
      <point x="215.735" y="675.6" type="line" smooth="yes"/>
      <point x="246.95" y="675.6"/>
      <point x="259.7125" y="668.6"/>
      <point x="260.7125" y="654.6" type="curve" smooth="yes"/>
      <point x="263.7125" y="606.6" type="line"/>
      <point x="296.0175" y="606.6" type="line"/>
      <point x="296.0175" y="710.0" type="line"/>
    </contour>
    <contour>
      <point x="320.78" y="395.0" type="line"/>
      <point x="419.64" y="395.0" type="line"/>
      <point x="419.64" y="427.8" type="line"/>
      <point x="417.5925" y="427.8" type="line" smooth="yes"/>
      <point x="409.5925" y="427.8"/>
      <point x="392.9" y="430.8"/>
      <point x="392.9" y="432.8" type="curve" smooth="yes"/>
      <point x="392.9" y="702.0" type="line"/>
      <point x="387.52" y="701.0" type="line"/>
      <point x="466.355" y="394.0" type="line"/>
      <point x="509.58500000000004" y="394.0" type="line"/>
      <point x="590.11" y="701.0" type="line"/>
      <point x="584.2774999999999" y="701.0" type="line"/>
      <point x="584.2774999999999" y="432.8" type="line" smooth="yes"/>
      <point x="584.2774999999999" y="430.8"/>
      <point x="569.895" y="427.8"/>
      <point x="560.085" y="427.8" type="curve" smooth="yes"/>
      <point x="557.49" y="427.8" type="line"/>
      <point x="557.49" y="395.0" type="line"/>
      <point x="673.9575" y="395.0" type="line"/>
      <point x="673.9575" y="427.8" type="line"/>
      <point x="668.6475" y="427.8" type="line" smooth="yes"/>
      <point x="651.0025" y="427.8"/>
      <point x="639.4775" y="431.8"/>
      <point x="639.4775" y="444.8" type="curve" smooth="yes"/>
      <point x="639.4775" y="661.2" type="line" smooth="yes"/>
      <point x="639.4775" y="675.2"/>
      <point x="651.0025" y="677.2"/>
      <point x="668.6475" y="677.2" type="curve" smooth="yes"/>
      <point x="673.9575" y="677.2" type="line"/>
      <point x="673.9575" y="710.0" type="line"/>
      <point x="555.5425" y="710.0" type="line"/>
      <point x="486.7325" y="435.0" type="line"/>
      <point x="504.035" y="434.0" type="line"/>
      <point x="441.505" y="710.0" type="line"/>
      <point x="320.78" y="710.0" type="line"/>
      <point x="320.78" y="677.2" type="line"/>
      <point x="325.685" y="677.2" type="line" smooth="yes"/>
      <point x="341.925" y="677.2"/>
      <point x="355.66499999999996" y="675.2"/>
      <point x="355.66499999999996" y="661.2" type="curve" smooth="yes"/>
      <point x="355.66499999999996" y="444.8" type="line" smooth="yes"/>
      <point x="355.66499999999996" y="431.8"/>
      <point x="341.925" y="427.8"/>
      <point x="325.685" y="427.8" type="curve"/>
      <point x="320.78" y="427.8" type="line"/>
    </contour>
  </outline>
</glyph>
<glyph name="notequal" format="2">
  <advance width="462"/>
  <unicode hex="2260"/>
  <outline>
    <contour>
      <point x="317.8375" y="566.2" type="line"/>
      <point x="58.5775" y="87.2" type="line"/>
      <point x="127.6625" y="87.2" type="line"/>
      <point x="386.9225" y="566.2" type="line"/>
    </contour>
    <component base="equal" xOffset="-56.334999999999994" yOffset="0.8"/>
  </outline>
</glyph>
<glyph name="f_f_i" format="2">
  <advance width="831.8675000000001"/>
  <unicode hex="FB03"/>
  <outline>
    <contour>
      <point x="28.5075" y="508.0" type="line"/>
      <point x="28.5075" y="457.0" type="line"/>
      <point x="328.83" y="457.0" type="line"/>
      <point x="328.83" y="508.0" type="line"/>
    </contour>
    <contour>
      <point x="307.8375" y="508.0" type="line"/>
      <point x="307.8375" y="457.0" type="line"/>
      <point x="649.145" y="457.0" type="line"/>
      <point x="649.145" y="508.0" type="line"/>
    </contour>
    <contour>
      <point x="709.4675" y="626.6" type="curve" smooth="yes"/>
      <point x="741.8875" y="626.6"/>
      <point x="764.9075" y="647.8"/>
      <point x="764.9075" y="683.4" type="curve" smooth="yes"/>
      <point x="764.9075" y="718.2"/>
      <point x="741.8875" y="739.4"/>
      <point x="709.4675" y="739.4" type="curve" smooth="yes"/>
      <point x="677.5475" y="739.4"/>
      <point x="654.48" y="718.2"/>
      <point x="654.48" y="683.4" type="curve" smooth="yes"/>
      <point x="654.48" y="647.8"/>
      <point x="677.5475" y="626.6"/>
    </contour>
    <contour>
      <point x="604.9975" y="0.0" type="line"/>
      <point x="821.415" y="0.0" type="line"/>
      <point x="821.415" y="41.4" type="line"/>
      <point x="820.415" y="41.4" type="line" smooth="yes"/>
      <point x="783.2425000000001" y="41.4"/>
      <point x="755.8575" y="48.4"/>
      <point x="755.8575" y="77.4" type="curve" smooth="yes"/>
      <point x="755.8575" y="508.0" type="line"/>
      <point x="604.0925" y="508.0" type="line"/>
      <point x="604.0925" y="457.0" type="line"/>
      <point x="612.8075" y="457.0" type="line" smooth="yes"/>
      <point x="653.3375" y="457.0"/>
      <point x="670.1025" y="441.4"/>
      <point x="670.1025" y="412.4" type="curve"/>
      <point x="670.1025" y="51.4" type="line"/>
      <point x="670.1025" y="44.4"/>
      <point x="635.2875" y="41.4"/>
      <point x="613.5699999999999" y="41.4" type="curve" smooth="yes"/>
      <point x="604.9975" y="41.4" type="line"/>
    </contour>
    <contour>
      <point x="197.1025" y="51.4" type="curve"/>
      <point x="197.1025" y="561.0" type="line" smooth="yes"/>
      <point x="197.1025" y="662.4"/>
      <point x="228.2975" y="687.6"/>
      <point x="270.85" y="687.6" type="curve" smooth="yes"/>
      <point x="293.71" y="687.6"/>
      <point x="314.5925" y="678.6"/>
      <point x="329.6675" y="670.6" type="curve"/>
      <point x="329.6675" y="727.8" type="line"/>
      <point x="316.0" y="733.8"/>
      <point x="290.5725" y="737.8"/>
      <point x="267.28999999999996" y="737.8" type="curve" smooth="yes"/>
      <point x="188.63" y="737.8"/>
      <point x="111.4425" y="694.8"/>
      <point x="111.4425" y="561.0" type="curve" smooth="yes"/>
      <point x="111.4425" y="77.4" type="line"/>
      <point x="111.4425" y="48.4"/>
      <point x="85.82" y="41.4"/>
      <point x="42.457499999999996" y="41.4" type="curve" smooth="yes"/>
      <point x="33.362500000000004" y="41.4" type="line"/>
      <point x="33.362500000000004" y="0.0" type="line"/>
      <point x="261.9925" y="0.0" type="line"/>
      <point x="261.9925" y="41.4" type="line"/>
      <point x="259.4925" y="41.4" type="line" smooth="yes"/>
      <point x="223.39249999999998" y="41.4"/>
      <point x="197.1025" y="44.4"/>
    </contour>
    <contour>
      <point x="390.7725" y="51.4" type="line"/>
      <point x="390.7725" y="44.4"/>
      <point x="364.5775" y="41.4"/>
      <point x="324.19" y="41.4" type="curve" smooth="yes"/>
      <point x="314.5925" y="41.4" type="line"/>
      <point x="314.5925" y="0.0" type="line"/>
      <point x="552.3975" y="0.0" type="line"/>
      <point x="552.3975" y="41.4" type="line"/>
      <point x="542.205" y="41.4" type="line" smooth="yes"/>
      <point x="505.2225" y="41.4"/>
      <point x="476.4325" y="44.4"/>
      <point x="476.4325" y="51.4" type="curve"/>
      <point x="476.4325" y="575.2" type="line" smooth="yes"/>
      <point x="476.4325" y="676.6"/>
      <point x="503.865" y="701.8"/>
      <point x="543.2025" y="701.8" type="curve" smooth="yes"/>
      <point x="563.705" y="701.8"/>
      <point x="584.5875" y="694.4"/>
      <point x="598.3050000000001" y="686.4" type="curve"/>
      <point x="598.3050000000001" y="742.0" type="line"/>
      <point x="585.9475" y="748.0"/>
      <point x="561.5675" y="752.0"/>
      <point x="539.6424999999999" y="752.0" type="curve" smooth="yes"/>
      <point x="464.15" y="752.0"/>
      <point x="390.7725" y="709.0"/>
      <point x="390.7725" y="575.2" type="curve"/>
    </contour>
  </outline>
</glyph>
<glyph name="F.alt" format="2">
  <advance width="496.9"/>
  <outline>
    <contour>
      <point x="35.195" y="0.0" type="line"/>
      <point x="289.44" y="0.0" type="line"/>
      <point x="289.44" y="43.6" type="line"/>
      <point x="275.44" y="43.6" type="line" smooth="yes"/>
      <point x="241.365" y="43.6"/>
      <point x="200.0275" y="44.6"/>
      <point x="200.0275" y="79.6" type="curve" smooth="yes"/>
      <point x="200.0275" y="656.8" type="line"/>
      <point x="305.7075" y="656.8" type="line" smooth="yes"/>
      <point x="373.3575" y="656.8"/>
      <point x="402.2625" y="649.8"/>
      <point x="405.7625" y="613.8" type="curve" smooth="yes"/>
      <point x="413.025" y="523.8" type="line"/>
      <point x="462.9675" y="523.8" type="line"/>
      <point x="462.9675" y="710.0" type="line"/>
      <point x="35.195" y="710.0" type="line"/>
      <point x="35.195" y="666.4" type="line"/>
      <point x="44.1475" y="666.4" type="line" smooth="yes"/>
      <point x="82.7475" y="666.4"/>
      <point x="111.32249999999999" y="659.4"/>
      <point x="111.32249999999999" y="630.4" type="curve" smooth="yes"/>
      <point x="111.32249999999999" y="79.6" type="line" smooth="yes"/>
      <point x="111.32249999999999" y="50.6"/>
      <point x="82.7475" y="43.6"/>
      <point x="44.1475" y="43.6" type="curve" smooth="yes"/>
      <point x="35.195" y="43.6" type="line"/>
    </contour>
    <contour>
      <point x="162.8425" y="328.4" type="line"/>
      <point x="320.5925" y="328.4" type="line" smooth="yes"/>
      <point x="344.14" y="328.4"/>
      <point x="352.4975" y="297.8"/>
      <point x="352.4975" y="263.8" type="curve" smooth="yes"/>
      <point x="352.4975" y="257.4" type="line"/>
      <point x="392.49" y="257.4" type="line"/>
      <point x="392.49" y="451.2" type="line"/>
      <point x="352.4975" y="451.2" type="line"/>
      <point x="352.4975" y="444.8" type="line" smooth="yes"/>
      <point x="352.4975" y="409.8"/>
      <point x="344.14" y="379.2"/>
      <point x="320.5925" y="379.2" type="curve" smooth="yes"/>
      <point x="162.8425" y="379.2" type="line"/>
    </contour>
  </outline>
</glyph>
<glyph name="at.uc" format="2">
  <advance width="714.2975"/>
  <outline>
    <contour>
      <point x="366.185" y="-18.599999999999998" type="curve" smooth="yes"/>
      <point x="199.23250000000002" y="-18.599999999999998"/>
      <point x="80.8275" y="105.2"/>
      <point x="80.8275" y="304.0" type="curve" smooth="yes"/>
      <point x="80.8275" y="519.4"/>
      <point x="213.23250000000002" y="683.6"/>
      <point x="393.185" y="683.6" type="curve" smooth="yes"/>
      <point x="549.66" y="683.6"/>
      <point x="637.495" y="565.0"/>
      <point x="637.495" y="414.4" type="curve" smooth="yes"/>
      <point x="637.495" y="255.8"/>
      <point x="576.635" y="173.0"/>
      <point x="533.585" y="173.0" type="curve" smooth="yes"/>
      <point x="503.0575" y="173.0"/>
      <point x="488.935" y="196.410187524"/>
      <point x="495.745" y="251.4" type="curve" smooth="yes"/>
      <point x="537.245" y="540.4" type="line"/>
      <point x="487.29" y="540.4" type="line"/>
      <point x="458.7425" y="461.0" type="line"/>
      <point x="448.02750000000003" y="455.8" type="line"/>
      <point x="416.02750000000003" y="221.0" type="line"/>
      <point x="417.765" y="216.2"/>
      <point x="422.09749999999997" y="215.6"/>
      <point x="423.145" y="215.4" type="curve"/>
      <point x="427.9525" y="167.200531271"/>
      <point x="461.0225" y="127.0"/>
      <point x="519.9225" y="127.0" type="curve" smooth="yes"/>
      <point x="601.345" y="127.0"/>
      <point x="690.5575" y="231.4"/>
      <point x="690.5575" y="414.4" type="curve" smooth="yes"/>
      <point x="690.5575" y="596.8"/>
      <point x="575.845" y="733.0"/>
      <point x="393.185" y="733.0" type="curve" smooth="yes"/>
      <point x="185.9275" y="733.0"/>
      <point x="27.8125" y="551.8"/>
      <point x="27.8125" y="304.0" type="curve" smooth="yes"/>
      <point x="27.8125" y="72.6"/>
      <point x="171.88" y="-68.2"/>
      <point x="366.185" y="-68.2" type="curve" smooth="yes"/>
      <point x="454.53999999999996" y="-68.2"/>
      <point x="539.2525" y="-39.6"/>
      <point x="587.2975" y="-12.2" type="curve"/>
      <point x="571.37" y="34.6" type="line"/>
      <point x="522.9449999999999" y="8.0"/>
      <point x="451.565" y="-18.599999999999998"/>
    </contour>
    <contour>
      <point x="321.28499999999997" y="121.4" type="curve" smooth="yes"/>
      <point x="386.95" y="121.4"/>
      <point x="419.26" y="179.4"/>
      <point x="476.97749999999996" y="270.6" type="curve"/>
      <point x="457.36" y="298.8" type="line"/>
      <point x="412.2625" y="218.0"/>
      <point x="375.54499999999996" y="166.0"/>
      <point x="329.73" y="166.0" type="curve" smooth="yes"/>
      <point x="291.845" y="166.0"/>
      <point x="273.4375" y="209.0"/>
      <point x="273.4375" y="287.0" type="curve" smooth="yes"/>
      <point x="273.4375" y="390.2"/>
      <point x="314.275" y="501.0"/>
      <point x="376.4475" y="501.0" type="curve" smooth="yes"/>
      <point x="415.6175" y="501.0"/>
      <point x="444.55" y="470.0"/>
      <point x="457.9775" y="384.8" type="curve"/>
      <point x="487.455" y="410.6" type="line"/>
      <point x="467.05" y="511.0"/>
      <point x="429.57" y="546.4"/>
      <point x="370.33500000000004" y="546.4" type="curve" smooth="yes"/>
      <point x="258.0025" y="546.4"/>
      <point x="194.72" y="415.8"/>
      <point x="194.72" y="295.8" type="curve" smooth="yes"/>
      <point x="194.72" y="183.4"/>
      <point x="247.6925" y="121.4"/>
    </contour>
  </outline>
</glyph>
<glyph name="braceleft.uc" format="2">
  <advance width="285.135"/>
  <outline>
    <contour>
      <point x="209.77249999999998" y="281.6" type="curve"/>
      <point x="209.77249999999998" y="314.6"/>
      <point x="190.92291560191583" y="330.4"/>
      <point x="97.01" y="347.0" type="curve"/>
      <point x="97.01" y="352.2" type="line"/>
      <point x="190.92291560191583" y="368.8"/>
      <point x="209.77249999999998" y="384.6"/>
      <point x="209.77249999999998" y="417.6" type="curve" smooth="yes"/>
      <point x="209.77249999999998" y="460.4"/>
      <point x="140.48250000000002" y="563.2"/>
      <point x="140.48250000000002" y="628.4" type="curve" smooth="yes"/>
      <point x="140.48250000000002" y="687.8"/>
      <point x="184.25459626950175" y="717.0000050699166"/>
      <point x="268.39750000000004" y="715.8" type="curve"/>
      <point x="256.51750000000004" y="759.2" type="line"/>
      <point x="152.9746391608957" y="764.000040574025"/>
      <point x="56.932500000000005" y="732.0"/>
      <point x="56.932500000000005" y="632.4" type="curve" smooth="yes"/>
      <point x="56.932500000000005" y="561.4"/>
      <point x="129.77" y="464.2"/>
      <point x="156.3125" y="399.8" type="curve"/>
      <point x="166.695" y="416.2" type="line"/>
      <point x="39.48" y="367.8" type="line"/>
      <point x="39.48" y="331.4" type="line"/>
      <point x="166.695" y="283.0" type="line"/>
      <point x="156.3125" y="299.4" type="line"/>
      <point x="129.865" y="235.0"/>
      <point x="56.932500000000005" y="137.8"/>
      <point x="56.932500000000005" y="66.8" type="curve" smooth="yes"/>
      <point x="56.932500000000005" y="-32.8"/>
      <point x="152.97463916089566" y="-64.8"/>
      <point x="256.51750000000004" y="-60.0" type="curve"/>
      <point x="268.39750000000004" y="-16.599999999999998" type="line"/>
      <point x="184.25459626950132" y="-17.799999999999997"/>
      <point x="140.48250000000002" y="11.4"/>
      <point x="140.48250000000002" y="70.8" type="curve" smooth="yes"/>
      <point x="140.48250000000002" y="136.0"/>
      <point x="209.77249999999998" y="238.8"/>
    </contour>
  </outline>
</glyph>
<glyph name="bracketleft.uc" format="2">
  <advance width="277.7325"/>
  <outline>
    <contour>
      <point x="47.932500000000005" y="766.0" type="line"/>
      <point x="47.932500000000005" y="-60.0" type="line"/>
      <point x="122.5775" y="-60.0" type="line"/>
      <point x="122.5775" y="766.0" type="line"/>
    </contour>
    <contour>
      <point x="253.70749999999998" y="766.0" type="line"/>
      <point x="80.9325" y="766.0" type="line"/>
      <point x="80.9325" y="720.0" type="line"/>
      <point x="253.70749999999998" y="720.0" type="line"/>
    </contour>
    <contour>
      <point x="253.70749999999998" y="-14.0" type="line"/>
      <point x="80.9325" y="-14.0" type="line"/>
      <point x="80.9325" y="-60.0" type="line"/>
      <point x="253.70749999999998" y="-60.0" type="line"/>
    </contour>
  </outline>
</glyph>
<glyph name="breve_grave.uc" format="2">
  <advance width="420.9525"/>
  <anchor x="206.0" y="744.0" name="_top"/>
  <outline>
    <contour>
      <point x="195.23" y="1023.6" type="curve" smooth="yes"/>
      <point x="246.1875" y="936.4" type="line"/>
      <point x="246.1875" y="916.0" type="line"/>
      <point x="220.48" y="916.0" type="line"/>
      <point x="154.5475" y="965.6" type="line" smooth="yes"/>
      <point x="123.0775" y="984.6"/>
      <point x="103.84" y="1003.6"/>
      <point x="103.84" y="1026.8" type="curve" smooth="yes"/>
      <point x="103.84" y="1046.2"/>
      <point x="118.79" y="1064.0"/>
      <point x="140.85750000000002" y="1064.0" type="curve" smooth="yes"/>
      <point x="163.1625" y="1064.0"/>
      <point x="179.16" y="1049.2"/>
    </contour>
    <component base="breve.uc" xOffset="-42.8125"/>
  </outline>
</glyph>
<glyph name="breve_tilde.uc" format="2">
  <advance width="412.5"/>
  <anchor x="232.5" y="694.0" name="_top"/>
  <outline>
    <contour>
      <point x="206.19" y="759.0" type="curve" smooth="yes"/>
      <point x="136.3825" y="759.0"/>
      <point x="90.6725" y="801.2"/>
      <point x="84.41" y="879.2" type="curve"/>
      <point x="139.925" y="879.2" type="line"/>
      <point x="146.14" y="834.6"/>
      <point x="168.355" y="820.6"/>
      <point x="208.69" y="820.6" type="curve" smooth="yes"/>
      <point x="250.335" y="820.6"/>
      <point x="270.6925" y="834.6"/>
      <point x="276.0025" y="879.2" type="curve"/>
      <point x="327.51750000000004" y="879.2" type="line"/>
      <point x="321.255" y="801.2"/>
      <point x="276.45" y="759.0"/>
    </contour>
    <contour>
      <point x="254.57" y="924.0" type="curve" smooth="yes"/>
      <point x="299.1375" y="924.0"/>
      <point x="330.39750000000004" y="959.4"/>
      <point x="343.04" y="1019.2" type="curve"/>
      <point x="298.3575" y="1036.2" type="line"/>
      <point x="290.5" y="1004.6"/>
      <point x="281.405" y="981.8"/>
      <point x="260.69" y="981.8" type="curve" smooth="yes"/>
      <point x="229.785" y="981.8"/>
      <point x="206.355" y="1032.8"/>
      <point x="157.215" y="1032.8" type="curve" smooth="yes"/>
      <point x="110.005" y="1032.8"/>
      <point x="84.60249999999999" y="999.2"/>
      <point x="73.46" y="936.4" type="curve"/>
      <point x="118.14250000000001" y="920.0" type="line"/>
      <point x="124.1425" y="954.8"/>
      <point x="133.14249999999998" y="975.8"/>
      <point x="152.4525" y="975.8" type="curve" smooth="yes"/>
      <point x="177.405" y="975.8"/>
      <point x="200.93" y="924.0"/>
    </contour>
  </outline>
</glyph>
<glyph name="caron.alt" format="2">
  <advance width="412.5"/>
  <anchor x="72.5" y="574.0" name="_right"/>
  <outline>
    <contour>
      <point x="130.70499999999998" y="526.0" type="line"/>
      <point x="82.5" y="526.0" type="line"/>
      <point x="82.5" y="536.0" type="line"/>
      <point x="97.31" y="710.0" type="line"/>
      <point x="178.29500000000002" y="710.0" type="line"/>
    </contour>
  </outline>
</glyph>
<glyph name="cedi.proportional" format="2">
  <advance width="575.7775"/>
  <outline>
    <contour>
      <point x="328.5925" y="700.0" type="curve" smooth="yes"/>
      <point x="154.9525" y="700.0"/>
      <point x="43.695" y="559.4"/>
      <point x="43.695" y="355.0" type="curve" smooth="yes"/>
      <point x="43.695" y="150.0"/>
      <point x="158.335" y="10.0"/>
      <point x="316.0675" y="10.0" type="curve" smooth="yes"/>
      <point x="437.4175" y="10.0"/>
      <point x="516.49" y="100.8"/>
      <point x="543.11" y="227.0" type="curve"/>
      <point x="490.3525" y="254.2" type="line"/>
      <point x="467.97" y="145.4"/>
      <point x="411.85" y="65.6"/>
      <point x="323.49" y="65.6" type="curve" smooth="yes"/>
      <point x="208.4625" y="65.6"/>
      <point x="135.40500000000003" y="180.2"/>
      <point x="135.40500000000003" y="355.0" type="curve" smooth="yes"/>
      <point x="135.40500000000003" y="534.6"/>
      <point x="203.03499999999997" y="648.4"/>
      <point x="329.875" y="648.4" type="curve" smooth="yes"/>
      <point x="410.855" y="648.4"/>
      <point x="457.8825" y="603.0"/>
      <point x="480.575" y="554.2" type="curve"/>
      <point x="491.49" y="575.4"/>
      <point x="466.19" y="608.4"/>
      <point x="442.2425" y="617.0" type="curve"/>
      <point x="442.2425" y="494.8" type="line"/>
      <point x="527.99" y="494.8" type="line"/>
      <point x="527.99" y="615.8" type="line"/>
      <point x="500.27250000000004" y="650.2"/>
      <point x="433.035" y="700.0"/>
    </contour>
    <contour>
      <point x="286.6875" y="790.0" type="line"/>
      <point x="286.6875" y="673.2" type="line"/>
      <point x="287.685" y="663.0" type="line"/>
      <point x="287.685" y="38.2" type="line"/>
      <point x="286.6875" y="31.6" type="line"/>
      <point x="286.6875" y="-120.0" type="line"/>
      <point x="339.3225" y="-120.0" type="line"/>
      <point x="339.3225" y="33.2" type="line"/>
      <point x="338.27750000000003" y="41.8" type="line"/>
      <point x="338.27750000000003" y="668.8" type="line"/>
      <point x="339.3225" y="674.4" type="line"/>
      <point x="339.3225" y="790.0" type="line"/>
    </contour>
  </outline>
</glyph>
<glyph name="circumflex.uc" format="2">
  <advance width="412.095"/>
  <anchor x="202.0" y="694.0" name="_top"/>
  <outline>
    <contour>
      <point x="248.4875" y="900.6" type="line"/>
      <point x="337.82" y="768.6" type="line"/>
      <point x="337.82" y="756.2" type="line"/>
      <point x="290.715" y="756.2" type="line"/>
      <point x="194.485" y="851.0" type="line"/>
      <point x="212.745" y="851.0" type="line"/>
      <point x="116.4675" y="756.2" type="line"/>
      <point x="77.815" y="756.2" type="line"/>
      <point x="77.815" y="768.6" type="line"/>
      <point x="167.195" y="900.6" type="line"/>
    </contour>
  </outline>
</glyph>
<glyph name="circumflex_acute" format="2">
  <advance width="420.5"/>
  <anchor x="193.0" y="558.0" name="_top"/>
  <outline>
    <contour>
      <point x="340.92" y="821.6" type="curve" smooth="yes"/>
      <point x="307.96500000000003" y="707.8" type="line"/>
      <point x="307.96500000000003" y="689.0" type="line"/>
      <point x="336.14750000000004" y="689.0" type="line"/>
      <point x="401.53000000000003" y="780.0" type="line" smooth="yes"/>
      <point x="418.975" y="799.4"/>
      <point x="429.52" y="819.2"/>
      <point x="429.52" y="836.6" type="curve" smooth="yes"/>
      <point x="429.52" y="857.0"/>
      <point x="413.7375" y="872.6"/>
      <point x="391.195" y="872.6" type="curve" smooth="yes"/>
      <point x="367.7975" y="872.6"/>
      <point x="351.99" y="855.6"/>
    </contour>
    <component base="circumflex" xOffset="-63.165"/>
  </outline>
</glyph>
<glyph name="circumflex_grave.uc" format="2">
  <advance width="421.0"/>
  <anchor x="202.0" y="696.0" name="_top"/>
  <outline>
    <contour>
      <point x="361.2375" y="951.2" type="line" smooth="yes"/>
      <point x="346.43" y="979.0"/>
      <point x="329.36" y="993.2"/>
      <point x="306.9125" y="993.2" type="curve" smooth="yes"/>
      <point x="284.44" y="993.2"/>
      <point x="269.49" y="977.0"/>
      <point x="269.49" y="956.0" type="curve" smooth="yes"/>
      <point x="269.49" y="933.0"/>
      <point x="288.75" y="913.0"/>
      <point x="319.245" y="894.4" type="curve" smooth="yes"/>
      <point x="381.3425" y="848.4" type="line"/>
      <point x="405.55" y="848.4" type="line"/>
      <point x="405.55" y="867.2" type="line"/>
    </contour>
    <component base="circumflex.uc" xOffset="-50.975"/>
  </outline>
</glyph>
<glyph name="dollar.altprop" format="2">
  <advance width="484.8275"/>
  <outline>
    <contour>
      <point x="243.1175" y="65.2" type="curve" smooth="yes"/>
      <point x="172.97298429319372" y="65.2"/>
      <point x="111.6875" y="95.4"/>
      <point x="80.5675" y="151.6" type="curve"/>
      <point x="74.68717029342605" y="136.6"/>
      <point x="93.32579744333512" y="99.0"/>
      <point x="118.39750000000001" y="92.2" type="curve"/>
      <point x="118.39750000000001" y="211.8" type="line"/>
      <point x="35.4325" y="211.8" type="line"/>
      <point x="35.4325" y="94.8" type="line"/>
      <point x="76.4575" y="51.0"/>
      <point x="149.50348" y="11.2"/>
      <point x="246.6175" y="11.2" type="curve" smooth="yes"/>
      <point x="360.49" y="11.2"/>
      <point x="444.8225" y="81.6"/>
      <point x="444.8225" y="205.4" type="curve" smooth="yes"/>
      <point x="444.8225" y="331.0"/>
      <point x="352.9625" y="374.2"/>
      <point x="264.855" y="400.6" type="curve" smooth="yes"/>
      <point x="195.2254248166629" y="424.3550159064405"/>
      <point x="129.06" y="447.2"/>
      <point x="129.06" y="532.2" type="curve" smooth="yes"/>
      <point x="129.06" y="602.2"/>
      <point x="171.8975" y="644.0"/>
      <point x="249.2125" y="644.0" type="curve" smooth="yes"/>
      <point x="322.075" y="644.0"/>
      <point x="362.8125" y="607.0"/>
      <point x="386.62" y="572.8" type="curve"/>
      <point x="392.1200763722606" y="591.8"/>
      <point x="373.92923328747145" y="622.4"/>
      <point x="351.835" y="624.6" type="curve"/>
      <point x="351.835" y="526.6" type="line"/>
      <point x="429.77750000000003" y="526.6" type="line"/>
      <point x="429.77750000000003" y="632.0" type="line"/>
      <point x="404.7075" y="658.4"/>
      <point x="338.4975" y="698.0"/>
      <point x="251.9275" y="698.0" type="curve" smooth="yes"/>
      <point x="132.36" y="698.0"/>
      <point x="54.3875" y="632.0"/>
      <point x="54.3875" y="524.4" type="curve" smooth="yes"/>
      <point x="54.3875" y="397.6"/>
      <point x="141.02243395129517" y="362.1543940250725"/>
      <point x="224.5725" y="334.8" type="curve" smooth="yes"/>
      <point x="298.6276744172134" y="308.6"/>
      <point x="365.865" y="289.8"/>
      <point x="365.865" y="192.0" type="curve" smooth="yes"/>
      <point x="365.865" y="104.8"/>
      <point x="320.385" y="65.2"/>
    </contour>
    <contour>
      <point x="268.635" y="674.4" type="line"/>
      <point x="268.635" y="789.4" type="line"/>
      <point x="215.24" y="789.4" type="line"/>
      <point x="215.24" y="674.4" type="line"/>
    </contour>
    <contour>
      <point x="215.24" y="32.4" type="line"/>
      <point x="215.24" y="-120.0" type="line"/>
      <point x="268.635" y="-120.0" type="line"/>
      <point x="268.635" y="32.4" type="line"/>
    </contour>
  </outline>
</glyph>
<glyph name="dong.proportional" format="2">
  <advance width="525.06"/>
  <outline>
    <contour>
      <point x="126.4725" y="250.0" type="curve" smooth="yes"/>
      <point x="126.4725" y="380.8"/>
      <point x="165.265" y="466.4"/>
      <point x="238.77499999999998" y="466.4" type="curve" smooth="yes"/>
      <point x="298.6625" y="466.4"/>
      <point x="340.9325" y="416.8"/>
      <point x="375.1275" y="315.4" type="curve"/>
      <point x="408.0075" y="337.2" type="line"/>
      <point x="357.905" y="461.8"/>
      <point x="314.3825" y="518.0"/>
      <point x="230.2425" y="518.0" type="curve" smooth="yes"/>
      <point x="115.2175" y="518.0"/>
      <point x="36.765" y="408.8"/>
      <point x="36.765" y="250.0" type="curve" smooth="yes"/>
      <point x="36.765" y="93.8"/>
      <point x="112.2425" y="-10.2"/>
      <point x="225.10000000000002" y="-10.2" type="curve" smooth="yes"/>
      <point x="309.1" y="-10.2"/>
      <point x="350.125" y="53.2"/>
      <point x="406.105" y="176.2" type="curve"/>
      <point x="375.08" y="199.2" type="line"/>
      <point x="340.22" y="99.0"/>
      <point x="297.7125" y="41.400000000000006"/>
      <point x="235.89499999999998" y="41.400000000000006" type="curve" smooth="yes"/>
      <point x="165.2175" y="41.400000000000006"/>
      <point x="126.4725" y="122.4"/>
    </contour>
    <contour>
      <point x="357.7" y="730.0" type="line"/>
      <point x="357.7" y="120.2" type="line"/>
      <point x="364.7225" y="116.8" type="line"/>
      <point x="364.7225" y="0.0" type="line"/>
      <point x="508.56000000000006" y="0.0" type="line"/>
      <point x="508.56000000000006" y="41.4" type="line"/>
      <point x="507.08500000000004" y="41.4" type="line"/>
      <point x="469.77" y="41.4"/>
      <point x="443.45500000000004" y="48.4"/>
      <point x="443.45500000000004" y="77.4" type="curve" smooth="yes"/>
      <point x="443.45500000000004" y="730.0" type="line"/>
    </contour>
    <contour>
      <point x="97.0025" y="-127.6" type="line"/>
      <point x="97.0025" y="-181.6" type="line"/>
      <point x="462.205" y="-181.6" type="line"/>
      <point x="462.205" y="-127.6" type="line"/>
    </contour>
    <contour>
      <point x="208.215" y="621.2" type="line"/>
      <point x="208.215" y="573.6" type="line"/>
      <point x="524.2525" y="573.6" type="line"/>
      <point x="524.2525" y="621.2" type="line"/>
    </contour>
  </outline>
</glyph>
<glyph name="f_f_l.alt" format="2">
  <advance width="835.4875"/>
  <outline>
    <contour>
      <point x="28.5075" y="508.0" type="line"/>
      <point x="28.5075" y="457.0" type="line"/>
      <point x="325.21" y="457.0" type="line"/>
      <point x="325.21" y="508.0" type="line"/>
    </contour>
    <contour>
      <point x="307.8375" y="508.0" type="line"/>
      <point x="307.8375" y="457.0" type="line"/>
      <point x="586.4225" y="457.0" type="line"/>
      <point x="586.4225" y="508.0" type="line"/>
    </contour>
    <contour>
      <point x="553.395" y="0.0" type="line"/>
      <point x="553.395" y="41.4" type="line"/>
      <point x="542.9175" y="41.4" type="line" smooth="yes"/>
      <point x="505.46000000000004" y="41.4"/>
      <point x="476.4325" y="44.4"/>
      <point x="476.4325" y="51.4" type="curve" smooth="yes"/>
      <point x="476.4325" y="576.0" type="line" smooth="yes"/>
      <point x="476.4325" y="677.4"/>
      <point x="513.795" y="701.2"/>
      <point x="569.6575" y="701.2" type="curve" smooth="yes"/>
      <point x="621.5425" y="701.2"/>
      <point x="660.475" y="684.6"/>
      <point x="694.075" y="633.0" type="curve"/>
      <point x="704.555" y="701.4" type="line"/>
      <point x="673.0575" y="730.2"/>
      <point x="626.6075" y="752.0"/>
      <point x="569.02" y="752.0" type="curve" smooth="yes"/>
      <point x="477.505" y="752.0"/>
      <point x="390.7725" y="709.8"/>
      <point x="390.7725" y="576.0" type="curve"/>
      <point x="390.7725" y="51.4" type="line" smooth="yes"/>
      <point x="390.7725" y="44.4"/>
      <point x="364.5775" y="41.4"/>
      <point x="324.19" y="41.4" type="curve" smooth="yes"/>
      <point x="314.5925" y="41.4" type="line"/>
      <point x="314.5925" y="0.0" type="line"/>
    </contour>
    <contour>
      <point x="821.415" y="0.0" type="line"/>
      <point x="821.415" y="41.4" type="line"/>
      <point x="819.9625" y="41.4" type="line" smooth="yes"/>
      <point x="782.3375" y="41.4"/>
      <point x="755.8575" y="48.4"/>
      <point x="755.8575" y="77.4" type="curve" smooth="yes"/>
      <point x="755.8575" y="735.0" type="line"/>
      <point x="623.12" y="735.0" type="line"/>
      <point x="670.1025" y="697.4" type="line"/>
      <point x="670.1025" y="51.4" type="line" smooth="yes"/>
      <point x="670.1025" y="44.4"/>
      <point x="635.2875" y="41.4"/>
      <point x="613.7125" y="41.4" type="curve" smooth="yes"/>
      <point x="605.235" y="41.4" type="line"/>
      <point x="605.235" y="0.0" type="line"/>
    </contour>
    <contour>
      <point x="197.1025" y="51.4" type="curve" smooth="yes"/>
      <point x="197.1025" y="551.8" type="line" smooth="yes"/>
      <point x="197.1025" y="644.6"/>
      <point x="225.345" y="681.2"/>
      <point x="309.45" y="681.2" type="curve" smooth="yes"/>
      <point x="368.78999999999996" y="681.2"/>
      <point x="404.5575" y="660.0"/>
      <point x="426.6575" y="613.0" type="curve"/>
      <point x="439.06" y="651.8"/>
      <point x="417.6275" y="688.8"/>
      <point x="390.7725" y="674.4" type="curve"/>
      <point x="390.7725" y="549.0" type="line"/>
      <point x="463.17" y="599.0" type="line"/>
      <point x="464.7375" y="673.8" type="line"/>
      <point x="446.405" y="699.8"/>
      <point x="396.36" y="732.0"/>
      <point x="307.645" y="732.0" type="curve" smooth="yes"/>
      <point x="185.22" y="732.0"/>
      <point x="111.4425" y="671.0"/>
      <point x="111.4425" y="551.8" type="curve" smooth="yes"/>
      <point x="111.4425" y="77.4" type="line"/>
      <point x="111.4425" y="48.4"/>
      <point x="85.82" y="41.4"/>
      <point x="42.457499999999996" y="41.4" type="curve" smooth="yes"/>
      <point x="33.362500000000004" y="41.4" type="line"/>
      <point x="33.362500000000004" y="0.0" type="line"/>
      <point x="261.9925" y="0.0" type="line"/>
      <point x="261.9925" y="41.4" type="line"/>
      <point x="259.4925" y="41.4" type="line" smooth="yes"/>
      <point x="223.39249999999998" y="41.4"/>
      <point x="197.1025" y="44.4"/>
    </contour>
  </outline>
</glyph>
<glyph name="f_h" format="2">
  <advance width="830.9175"/>
  <outline>
    <contour>
      <point x="28.5075" y="508.0" type="line"/>
      <point x="28.5075" y="457.0" type="line"/>
      <point x="307.0925" y="457.0" type="line"/>
      <point x="307.0925" y="508.0" type="line"/>
    </contour>
    <contour>
      <point x="813.1525" y="0.0" type="line"/>
      <point x="813.1525" y="41.4" type="line"/>
      <point x="811.6525" y="41.4" type="line" smooth="yes"/>
      <point x="774.9325" y="41.4"/>
      <point x="748.0475" y="48.4"/>
      <point x="748.0475" y="77.4" type="curve" smooth="yes"/>
      <point x="748.0475" y="357.0" type="line" smooth="yes"/>
      <point x="748.0475" y="468.0"/>
      <point x="694.62" y="518.0"/>
      <point x="614.7175" y="518.0" type="curve" smooth="yes"/>
      <point x="533.525" y="518.0"/>
      <point x="485.2175" y="462.4"/>
      <point x="430.115" y="348.4" type="curve"/>
      <point x="454.0225" y="322.2" type="line"/>
      <point x="492.005" y="412.0"/>
      <point x="538.6075000000001" y="461.0"/>
      <point x="596.14" y="461.0" type="curve" smooth="yes"/>
      <point x="645.79" y="461.0"/>
      <point x="662.34" y="425.2"/>
      <point x="662.34" y="346.0" type="curve" smooth="yes"/>
      <point x="662.34" y="51.4" type="line" smooth="yes"/>
      <point x="662.34" y="44.4"/>
      <point x="627.525" y="41.4"/>
      <point x="605.3075" y="41.4" type="curve" smooth="yes"/>
      <point x="603.855" y="41.4" type="line"/>
      <point x="603.855" y="0.0" type="line"/>
    </contour>
    <contour>
      <point x="534.965" y="0.0" type="line"/>
      <point x="534.965" y="41.4" type="line"/>
      <point x="532.465" y="41.4" type="line" smooth="yes"/>
      <point x="510.89" y="41.4"/>
      <point x="476.48" y="44.4"/>
      <point x="476.48" y="51.4" type="curve"/>
      <point x="476.48" y="735.0" type="line"/>
      <point x="332.455" y="735.0" type="line"/>
      <point x="390.7725" y="699.8" type="line"/>
      <point x="390.7725" y="51.4" type="line"/>
      <point x="390.7725" y="44.4"/>
      <point x="355.9575" y="41.4"/>
      <point x="334.3825" y="41.4" type="curve" smooth="yes"/>
      <point x="325.905" y="41.4" type="line"/>
      <point x="325.905" y="0.0" type="line"/>
    </contour>
    <contour>
      <point x="273.305" y="0.0" type="line"/>
      <point x="273.305" y="41.4" type="line"/>
      <point x="263.1125" y="41.4" type="line" smooth="yes"/>
      <point x="225.655" y="41.4"/>
      <point x="197.1025" y="44.4"/>
      <point x="197.1025" y="51.4" type="curve"/>
      <point x="197.1025" y="576.0" type="line" smooth="yes"/>
      <point x="197.1025" y="677.4"/>
      <point x="234.46500000000003" y="701.2"/>
      <point x="290.3275" y="701.2" type="curve" smooth="yes"/>
      <point x="342.2125" y="701.2"/>
      <point x="381.145" y="684.6"/>
      <point x="414.745" y="633.0" type="curve"/>
      <point x="425.225" y="701.4" type="line"/>
      <point x="393.7275" y="730.2"/>
      <point x="347.27750000000003" y="752.0"/>
      <point x="289.6425" y="752.0" type="curve" smooth="yes"/>
      <point x="198.175" y="752.0"/>
      <point x="111.4425" y="709.8"/>
      <point x="111.4425" y="576.0" type="curve" smooth="yes"/>
      <point x="111.4425" y="77.4" type="line" smooth="yes"/>
      <point x="111.4425" y="48.4"/>
      <point x="85.82" y="41.4"/>
      <point x="42.457499999999996" y="41.4" type="curve" smooth="yes"/>
      <point x="33.362500000000004" y="41.4" type="line"/>
      <point x="33.362500000000004" y="0.0" type="line"/>
    </contour>
  </outline>
</glyph>
<glyph name="lira.proportional" format="2">
  <advance width="503.21"/>
  <outline>
    <contour>
      <point x="341.2125" y="-8.4" type="curve" smooth="yes"/>
      <point x="421.235" y="-8.4"/>
      <point x="464.9475" y="70.0"/>
      <point x="479.7075" y="164.4" type="curve"/>
      <point x="429.74" y="181.6" type="line"/>
      <point x="414.145" y="106.4"/>
      <point x="389.9525" y="71.6"/>
      <point x="345.975" y="71.6" type="curve" smooth="yes"/>
      <point x="299.3075" y="71.6"/>
      <point x="250.97" y="102.0"/>
      <point x="190.395" y="167.8" type="curve"/>
      <point x="175.28" y="161.2"/>
      <point x="161.2375" y="137.8"/>
      <point x="159.1175" y="120.8" type="curve"/>
      <point x="239.4275" y="37.4"/>
      <point x="276.2125" y="-8.4"/>
    </contour>
    <contour>
      <point x="29.9325" y="442.4" type="line"/>
      <point x="29.9325" y="394.8" type="line"/>
      <point x="358.77750000000003" y="394.8" type="line"/>
      <point x="358.77750000000003" y="442.4" type="line"/>
    </contour>
    <contour>
      <point x="29.9325" y="284.2" type="line"/>
      <point x="29.9325" y="236.6" type="line"/>
      <point x="358.77750000000003" y="236.6" type="line"/>
      <point x="358.77750000000003" y="284.2" type="line"/>
    </contour>
    <contour>
      <point x="282.4" y="664.0" type="curve" smooth="yes"/>
      <point x="337.29" y="664.0"/>
      <point x="371.7475" y="634.4"/>
      <point x="394.465" y="605.4" type="curve"/>
      <point x="396.745" y="620.8"/>
      <point x="388.1475" y="647.6"/>
      <point x="364.77" y="649.4" type="curve"/>
      <point x="364.77" y="549.4" type="line"/>
      <point x="443.96750000000003" y="549.4" type="line"/>
      <point x="443.96750000000003" y="657.4" type="line"/>
      <point x="420.685" y="681.8"/>
      <point x="364.235" y="718.0"/>
      <point x="279.7125" y="718.0" type="curve" smooth="yes"/>
      <point x="159.84" y="718.0"/>
      <point x="78.4825" y="639.2"/>
      <point x="78.4825" y="518.6" type="curve" smooth="yes"/>
      <point x="78.4825" y="404.6"/>
      <point x="146.17" y="330.2"/>
      <point x="146.17" y="219.4" type="curve" smooth="yes"/>
      <point x="146.17" y="133.4"/>
      <point x="112.9174883340325" y="85.4"/>
      <point x="29.9325" y="52.0" type="curve"/>
      <point x="29.9325" y="-10.0" type="line"/>
      <point x="156.61678620347251" y="25.4"/>
      <point x="221.9125" y="111.4"/>
      <point x="221.9125" y="231.4" type="curve" smooth="yes"/>
      <point x="221.9125" y="345.2"/>
      <point x="167.1925" y="409.6"/>
      <point x="167.1925" y="522.6" type="curve" smooth="yes"/>
      <point x="167.1925" y="613.8"/>
      <point x="214.915" y="664.0"/>
    </contour>
  </outline>
</glyph>
<glyph name="liraTurkish" format="2">
  <advance width="462.0"/>
  <outline>
    <contour>
      <point x="25.169999999999998" y="405.8" type="line"/>
      <point x="25.169999999999998" y="358.2" type="line"/>
      <point x="344.0275" y="533.0" type="line"/>
      <point x="344.0275" y="580.6" type="line"/>
    </contour>
    <contour>
      <point x="25.169999999999998" y="240.8" type="line"/>
      <point x="25.169999999999998" y="193.2" type="line"/>
      <point x="344.0275" y="368.0" type="line"/>
      <point x="344.0275" y="415.6" type="line"/>
    </contour>
    <contour>
      <point x="222.4925" y="51.6" type="curve" smooth="yes"/>
      <point x="186.72250000000003" y="51.6" type="line"/>
      <point x="186.72250000000003" y="630.4" type="line" smooth="yes"/>
      <point x="186.72250000000003" y="659.4"/>
      <point x="214.44" y="666.4"/>
      <point x="253.23" y="666.4" type="curve" smooth="yes"/>
      <point x="262.61" y="666.4" type="line"/>
      <point x="262.61" y="710.0" type="line"/>
      <point x="25.169999999999998" y="710.0" type="line"/>
      <point x="25.169999999999998" y="666.4" type="line"/>
      <point x="32.7175" y="666.4" type="line" smooth="yes"/>
      <point x="70.865" y="666.4"/>
      <point x="99.44" y="659.4"/>
      <point x="99.44" y="630.4" type="curve" smooth="yes"/>
      <point x="99.44" y="79.6" type="line" smooth="yes"/>
      <point x="99.44" y="50.6"/>
      <point x="70.865" y="43.6"/>
      <point x="32.7175" y="43.6" type="curve" smooth="yes"/>
      <point x="25.169999999999998" y="43.6" type="line"/>
      <point x="25.169999999999998" y="0.0" type="line"/>
      <point x="206.05" y="0.0" type="line" smooth="yes"/>
      <point x="353.1125" y="0.0"/>
      <point x="429.6625" y="97.2"/>
      <point x="437.6375" y="274.6" type="curve"/>
      <point x="372.105" y="295.4" type="line"/>
      <point x="369.51" y="136.8"/>
      <point x="318.90749999999997" y="51.6"/>
    </contour>
  </outline>
</glyph>
<glyph name="rupeeIndian.proportional" format="2">
  <advance width="492.3325"/>
  <outline>
    <contour>
      <point x="56.2425" y="518.2" type="line"/>
      <point x="56.2425" y="470.6" type="line"/>
      <point x="467.38" y="470.6" type="line"/>
      <point x="467.38" y="518.2" type="line"/>
    </contour>
    <contour>
      <point x="115.16999999999999" y="281.0" type="line"/>
      <point x="128.38" y="281.0" type="line" smooth="yes"/>
      <point x="278.425" y="281.0"/>
      <point x="368.3975" y="369.2"/>
      <point x="368.3975" y="498.4" type="curve" smooth="yes"/>
      <point x="368.3975" y="588.0"/>
      <point x="317.635" y="655.8"/>
      <point x="206.7425" y="676.2" type="curve"/>
      <point x="180.8825" y="691.0"/>
      <point x="133.7975" y="699.0"/>
      <point x="178.0025" y="662.4" type="curve"/>
      <point x="467.38" y="662.4" type="line"/>
      <point x="467.38" y="710.0" type="line"/>
      <point x="56.2425" y="710.0" type="line"/>
      <point x="56.2425" y="657.4" type="line"/>
      <point x="138.51" y="657.4" type="line" smooth="yes"/>
      <point x="231.01" y="657.4"/>
      <point x="277.0625" y="596.6"/>
      <point x="277.0625" y="498.4" type="curve" smooth="yes"/>
      <point x="277.0625" y="395.8"/>
      <point x="234.7725" y="329.4"/>
      <point x="109.695" y="329.4" type="curve" smooth="yes"/>
      <point x="56.2425" y="329.4" type="line"/>
      <point x="56.2425" y="290.4" type="line"/>
      <point x="291.635" y="0.0" type="line"/>
      <point x="407.06" y="0.0" type="line"/>
      <point x="407.06" y="43.6" type="line"/>
      <point x="397.06" y="43.6" type="line" smooth="yes"/>
      <point x="371.7975" y="43.6"/>
      <point x="357.845" y="51.6"/>
      <point x="340.845" y="71.8" type="curve" smooth="yes"/>
      <point x="137.16750000000002" y="314.2" type="line"/>
    </contour>
  </outline>
</glyph>
<glyph name="whitesquare" format="2">
  <advance width="485.0"/>
  <outline>
    <contour>
      <point x="70.0" y="104.0" type="line"/>
      <point x="415.0" y="104.0" type="line"/>
      <point x="415.0" y="522.0" type="line"/>
      <point x="70.0" y="522.0" type="line"/>
    </contour>
    <contour>
      <point x="115.5" y="159.0" type="line"/>
      <point x="115.5" y="467.0" type="line"/>
      <point x="369.5" y="467.0" type="line"/>
      <point x="369.5" y="159.0" type="line"/>
    </contour>
  </outline>
</glyph>
<glyph name="zero.old" format="2">
  <advance width="462.0"/>
  <outline>
    <contour>
      <point x="231.0" y="-11.8" type="curve" smooth="yes"/>
      <point x="352.17674242421504" y="-11.8"/>
      <point x="437.1625" y="104.2"/>
      <point x="437.1625" y="273.2" type="curve" smooth="yes"/>
      <point x="437.1625" y="442.0"/>
      <point x="352.18844279184253" y="558.0"/>
      <point x="231.0" y="558.0" type="curve" smooth="yes"/>
      <point x="109.86845711251999" y="558.0"/>
      <point x="24.8375" y="442.0"/>
      <point x="24.8375" y="273.2" type="curve" smooth="yes"/>
      <point x="24.8375" y="104.2"/>
      <point x="109.8801574801475" y="-11.8"/>
    </contour>
    <contour>
      <point x="227.96" y="40.6" type="curve" smooth="yes"/>
      <point x="156.79797169829249" y="40.6"/>
      <point x="114.54750000000001" y="131.6"/>
      <point x="116.97000000000001" y="273.2" type="curve" smooth="yes"/>
      <point x="119.39250000000001" y="413.6"/>
      <point x="162.8779716982925" y="506.4"/>
      <point x="234.04" y="506.4" type="curve" smooth="yes"/>
      <point x="305.109275148095" y="506.4"/>
      <point x="347.4525" y="413.6"/>
      <point x="345.03" y="273.2" type="curve" smooth="yes"/>
      <point x="342.6075" y="130.6"/>
      <point x="299.029275148095" y="40.6"/>
    </contour>
  </outline>
</glyph>
